<?xml version="1.0" encoding="UTF-8"?>
<svg version="1.1" viewBox="0 0 1408 768" xmlns="http://www.w3.org/2000/svg">
<path transform="translate(705,89)" d="m0 0h6v40l19 1c27.835 2.7584 55.125 14.317 76 33 0.70512 0.61102 1.4102 1.222 2.1367 1.8516 17.854 16.486 27.687 43.944 29.005 67.705 0.097839 2.7529 0.14174 5.5019 0.17065 8.2563 0.029004 0.94037 0.058008 1.8807 0.087891 2.8496 0.0083789 0.9017 0.016758 1.8034 0.025391 2.7324 0.021874 1.2197 0.021874 1.2197 0.044189 2.4641-0.63786 2.9063-2.0591 3.5334-4.47 5.1414-0.6626 2.8357-0.28168 5.0424 0 8l2 2c1.9148 18.207-10.438 39.746-21.242 53.469-15.961 19.709-40.026 34.533-65.383 38.031-9.499-0.2291-18.06-9.5082-25.245-15.082-6.3339-4.8841-12.824-9.5246-19.38-14.105-0.98839-0.69537-1.9768-1.3907-2.9951-2.1072-0.93489-0.64912-1.8698-1.2982-2.833-1.967-0.82919-0.5771-1.6584-1.1542-2.5127-1.7488-4.0227-2.4871-7.6123-4.2154-12.409-3.4895-2.0986 1.6022-2.0986 1.6022-3.875 3.8828-0.68707 0.82403-1.3741 1.6481-2.082 2.4971-3.1693 4.0647-6.1408 8.2367-9.043 12.495-1.214 1.7597-2.4289 3.5188-3.6445 5.2773-0.57573 0.83515-1.1515 1.6703-1.7446 2.5308-2.6154 3.7618-5.3276 7.4479-8.0601 11.125-1.6238 2.2197-1.6238 2.2197-3.0703 4.8516-1.4805 2.3398-1.4805 2.3398-4.4805 4.3398-2.7666 0.14246-5.4265 0.18769-8.1875 0.125-0.74959-0.0090234-1.4992-0.018047-2.2715-0.027344-1.8471-0.02353-3.6941-0.059401-5.541-0.097656 0.057605 0.57855 0.11521 1.1571 0.17456 1.7532 1.5301 17.698 1.5301 17.698-2.3777 22.809-2.8053 2.698-5.7064 5.0754-8.7969 7.4375-1.1869 1.254-2.3383 2.5434-3.4375 3.875-11.928 13.874-24.746 26.665-39.055 38.09-3.3147 2.69-6.476 5.5338-9.6328 8.4062-4.1772 3.6289-4.1772 3.6289-7.875 3.6289-0.091526-39.772-0.16202-79.544-0.20426-119.32-0.0050029-4.6939-0.01018-9.3879-0.015465-14.082-0.0010492-0.93449-0.0020985-1.869-0.0031795-2.8318-0.017412-15.137-0.048954-30.275-0.085705-45.412-0.037387-15.529-0.05962-31.057-0.067743-46.586-0.0054924-9.5845-0.022849-19.169-0.055312-28.753-0.02112-6.5696-0.02754-13.139-0.02234-19.709 0.0025657-3.7922-0.0014074-7.584-0.022816-11.376-0.023035-4.11-0.015142-8.2194-0.0041962-12.33-0.011651-1.2004-0.023303-2.4008-0.035307-3.6375 0.045285-6.2675 0.1796-10.269 4.5163-14.967 3.4127-2.2751 4.5944-2.2478 8.5998-2.2405 1.1653-0.0027493 2.3306-0.0054987 3.5311-0.0083313 1.9194 0.010786 1.9194 0.010786 3.8776 0.02179 1.36 5.641e-4 2.7201 2.4758e-4 4.0801-8.8501e-4 3.694-5.7457e-4 7.3878 0.011197 11.082 0.025148 3.8597 0.01249 7.7195 0.013676 11.579 0.016051 7.3098 0.0062198 14.62 0.022637 21.929 0.042699 8.3215 0.022343 16.643 0.033348 24.965 0.043391 17.119 0.020913 34.238 0.057596 51.356 0.10065v-40z" fill="#1E3C7A"/>
<path transform="translate(927,224)" d="m0 0c-0.41666 15.986-2.4865 31.71-4.6606 47.535-0.37142 2.7188-0.73467 5.4387-1.0978 8.1586-0.44004 3.2913-0.8858 6.5818-1.3315 9.8724-0.2423 1.8018-0.2423 1.8018-0.48949 3.64-0.91573 6.6534-2.0031 13.228-3.4207 19.794-5.8853-2.6138-9.6925-6.3331-14.219-10.82-3.1282-2.4516-4.8136-3.2327-8.7812-3.1797-2.3627 1.4372-2.3627 1.4372-4.3125 3.75-0.76828 0.82887-1.5366 1.6577-2.3281 2.5117-3.1389 3.643-6.1713 7.3629-9.1758 11.117-2.5424 3.0518-5.3022 5.7676-8.1523 8.5273-2.3428 2.4149-4.4261 4.9695-6.5312 7.5938-3.278 4.0863-6.7103 7.7671-10.469 11.406-2.3428 2.4149-4.4261 4.9695-6.5312 7.5938-3.278 4.0863-6.7103 7.7671-10.469 11.406-2.3428 2.4149-4.4261 4.9695-6.5312 7.5938-3.2769 4.0849-6.7076 7.7647-10.465 11.402-3.2012 3.2996-5.9986 6.9141-8.875 10.496-2.3493 2.8294-4.8491 5.3831-7.4883 7.9375-2.4014 2.3902-4.5898 4.9462-6.8008 7.5117-2.7692 3.1854-5.6249 6.2912-8.4727 9.4062-1.7447 1.9976-3.3771 3.984-4.9844 6.0859-0.43401 0.55655-0.86802 1.1131-1.3152 1.6865-1.2293 1.5875-2.4362 3.1923-3.6418 4.7979-2.457 2.1758-2.457 2.1758-5.168 2.4062-4.7951-1.7939-8.6081-4.6013-12.727-7.6055-0.88599-0.63341-1.772-1.2668-2.6848-1.9194-2.6352-1.8893-5.2586-3.7939-7.8777-5.7056-0.69932-0.50982-1.3986-1.0196-2.1191-1.5449-2.4615-1.7981-4.9194-3.6007-7.3713-5.4119-5.982-4.4153-12.054-8.6981-18.142-12.965-3.0354-2.1299-6.0468-4.2894-9.0469-6.4688-0.76522-0.5518-1.5304-1.1036-2.3188-1.6721-1.4655-1.0576-2.9264-2.1215-4.3818-3.1929-3.4938-2.509-6.2014-4.3762-10.62-4.7444-0.79922 0.99258-1.5984 1.9852-2.4219 3.0078-9.9966 12.381-20.19 24.53-31.008 36.203-2.3285 2.5267-4.609 5.0882-6.8828 7.6641-8.3391 9.264-17.062 18.127-26.855 25.855-2.6887 2.1547-5.2808 4.3859-7.8708 6.6565-28.477 24.894-65.412 45.58-104.05 45.816-0.74979 0.0057001-1.4996 0.0114-2.2721 0.017273-1.5799 0.0093849-3.1597 0.015958-4.7396 0.019836-2.361 0.0096291-4.7212 0.040682-7.082 0.072266-10.269 0.069275-19.801-1.0378-29.812-3.3125 2.1969-2.5299 3.6248-3.4022 6.9297-3.8867 0.78472-0.12923 1.5694-0.25846 2.3779-0.3916 0.84724-0.13503 1.6945-0.27006 2.5674-0.40918 17.076-3.0838 32.963-10.006 48.125-18.312 0.6745-0.36819 1.349-0.73638 2.0439-1.1157 19.563-10.806 38.06-24.453 54.479-39.619 2.0548-1.8798 4.1354-3.7139 6.2383-5.5391 4.3195-3.7692 8.5089-7.665 12.676-11.602 0.74427-0.70254 1.4885-1.4051 2.2554-2.1289 7.7968-7.3791 15.338-14.826 22.307-22.996 0.90429-1.0409 1.8093-2.0813 2.7148-3.1211 18.567-21.387 35.67-44.255 51.285-67.879 4.4321 0.54897 7.0804 2.1661 10.688 4.75 0.5518 0.39196 1.1036 0.78391 1.6721 1.1877 1.887 1.3448 3.7639 2.7029 5.6404 4.0623 1.4529 1.0458 2.9061 2.0914 4.3594 3.1367 3.0804 2.219 6.1567 4.4436 9.2305 6.6719 3.7916 2.7472 7.5964 5.475 11.41 8.1914 5.4097 3.8558 10.802 7.7356 16.188 11.625 0.76514 0.55204 1.5303 1.1041 2.3186 1.6729 3.3368 2.4099 6.6692 4.8246 9.9783 7.2725 0.97453 0.7193 1.9491 1.4386 2.9531 2.1797 0.82371 0.61359 1.6474 1.2272 2.4961 1.8594 2.1098 1.5536 2.1098 1.5536 5.0664 2.3906 0.32871-0.47309 0.65742-0.94617 0.99609-1.4336 3.5379-4.9186 7.451-9.1225 11.781-13.352 2.6107-2.6015 5.017-5.3312 7.418-8.125 3.5326-4.0908 7.183-8.0779 10.805-12.09 1.5003-1.6664 3.0003-3.3331 4.5-5 2.2717-2.525 4.5444-5.0491 6.8203-7.5703 5.6391-6.2508 11.216-12.547 16.688-18.945 5.4324-6.3354 10.888-12.486 16.875-18.309 3.2273-3.3167 6.081-6.9112 8.9688-10.523 2.5087-3.0972 5.1455-6.0565 7.8359-8.9961 1.5285-1.7352 1.5285-1.7352 2.3125-4.6562-2.7906-1.8142-5.5826-3.6261-8.375-5.4375-0.79406-0.51627-1.5881-1.0325-2.4062-1.5645-1.1408-0.7396-1.1408-0.7396-2.3047-1.4941-0.70173-0.4556-1.4035-0.91121-2.1265-1.3806-1.7884-1.1642-1.7884-1.1642-3.7876-2.1233 0.040283-1.7969 0.040283-1.7969 1-4 2.4701-1.2965 4.7548-2.2914 7.3555-3.25 0.76119-0.29492 1.5224-0.58985 2.3066-0.89371 2.5032-0.96643 5.0141-1.9111 7.5254-2.8563 1.7297-0.66416 3.4587-1.33 5.187-1.9976 3.5124-1.3555 7.0272-2.7042 10.544-4.0483 6.6359-2.5433 13.236-5.1752 19.829-7.8252 1.8177-0.73009 3.6368-1.4569 5.4559-2.1836 6.488-2.5958 12.937-5.2601 19.348-8.0405 2.4478-0.90479 2.4478-0.90479 5.4478-0.90479z" fill="#61AD47"/>
<path transform="translate(1053,618)" d="m0 0c2.9375 2.6875 2.9375 2.6875 5 5 2.7142 0 3.2994-1.0386 5.25-2.875 4.9582-4.3257 9.7827-5.6836 16.312-5.4961 5.4899 0.8358 10.517 3.112 14.145 7.3789 3.7014 5.7814 4.4349 10.568 4.3906 17.379-0.001415 0.81701-0.0028299 1.634-0.0042877 2.4758-0.0055956 2.6084-0.018147 5.2167-0.030869 7.825-0.0050156 1.7689-0.0095784 3.5378-0.013672 5.3066-0.010172 4.3353-0.029748 8.6705-0.048828 13.006h-16c-0.01418-2.3242-0.028359-4.6484-0.042969-7.043-0.030648-2.2606-0.069729-4.521-0.10962-6.7815-0.023141-1.5663-0.037567-3.1328-0.042969-4.6992-0.0093192-2.2574-0.050366-4.5124-0.097412-6.7693 0.0039326-0.69603 0.0078653-1.3921 0.011917-2.1092-0.11531-3.8763-0.63528-5.4953-3.1184-8.538-2.7019-2.1401-3.7811-2.7436-7.1631-2.6848-0.74379-0.012891-1.4876-0.025781-2.2539-0.039062-3.3246 1.0111-4.3159 2.7763-6.1836 5.6641-0.40978 2.7-0.60461 5.0098-0.60938 7.707-0.016536 0.72539-0.033073 1.4508-0.05011 2.1982-0.04834 2.3025-0.069818 4.6044-0.090515 6.9073-0.028172 1.5671-0.058101 3.1341-0.089844 4.7012-0.077027 3.8291-0.11767 7.6561-0.16016 11.486h-16c-0.01418-2.408-0.028359-4.8159-0.042969-7.2969-0.03063-2.3367-0.069716-4.6732-0.10962-7.0098-0.023171-1.6216-0.037574-3.2434-0.042969-4.8652-0.0092971-2.3343-0.050296-4.6662-0.097412-7 0.0039326-0.72306 0.0078653-1.4461 0.011917-2.1911-0.10978-3.8026-0.42327-5.3366-3.1342-8.0909-2.4754-1.4807-3.7473-2.1144-6.5847-2.1086-0.95906-0.032871-0.95906-0.032871-1.9375-0.066406-3.3567 1.0235-4.8599 2.9457-7.0625 5.6289-0.50763 2.7689-0.72264 4.944-0.70703 7.707-0.015121 0.72539-0.030243 1.4508-0.045822 2.1982-0.042775 2.3028-0.051704 4.6042-0.059647 6.9073-0.023153 1.5671-0.04852 3.1342-0.076172 4.7012-0.066899 3.8295-0.087956 7.6553-0.11133 11.486h-16v-52h16l1 5 2.25-1.875c7.5031-5.7979 15.39-5.2091 23.75-1.125z" fill="#223E75"/>
<path transform="translate(531,599)" d="m0 0h16v69h-16l-1-6c-0.72188 0.78375-1.4438 1.5675-2.1875 2.375-4.8849 4.5592-9.4666 5.1496-15.965 4.9922-5.7131-0.73667-9.8619-3.1258-13.668-7.4219-6.0376-8.4292-7.5298-17.743-6.1797-27.945 2.8434-8.1878 6.4559-12.971 13.625-17.75 5.684-2.1052 11.345-2.4442 17.051-0.19531 5.9573 3.2114 5.9573 3.2114 7.3242 5.9453l1-23z" fill="#213E75"/>
<path transform="translate(398.5 617.38)" d="m0 0c2.0518 1.438 3.7225 2.8475 5.5 4.625l1-6h16v52h-16l-1-6-2.75 2.375c-4.988 4.3079-8.9028 5.0814-15.434 4.9336-5.9633-0.6534-10.078-3.2195-14.129-7.5586-6.5315-8.5069-7.0145-18.386-5.6875-28.75 1.9665-6.9657 5.9215-12.102 12-16 6.5834-3.2186 14.208-3.5031 20.5 0.375z" fill="#233F76"/>
<path transform="translate(650.27 617.13)" d="m0 0c2.1201 1.0625 3.9463 2.306 5.7305 3.8672l1-5h16v52h-16l-1-5-2.0625 1.875c-5.2214 3.7772-10.584 4.6823-16.938 4.125-7.4368-1.3794-11.785-5.9344-16-12-4.0623-7.4181-4.3736-16.808-2.2383-24.879 2.8783-7.6336 6.5184-12.383 13.809-16.172 6.1105-2.3872 11.793-1.292 17.699 1.1836z" fill="#203D74"/>
<path transform="translate(993.81 621.75)" d="m0 0c5.516 5.221 7.3312 9.6975 7.709 17.375 0.16276 8.9305-1.0535 15.8-7.1309 22.704-5.2994 5.0077-11.072 7.2934-18.328 7.4844-8.9506-0.34267-15.448-1.9979-22.062-8.3125-6.3974-8.2493-7.263-16.896-6-27 1.9524-6.6366 5.2642-11.214 11-15 12.228-6.0067 23.928-5.7262 34.812 2.75z" fill="#223E75"/>
<path transform="translate(311,602)" d="m0 0c36.158 0 36.158 0 43.875 6.375 4.6874 5.7903 5.6928 10.29 5.4648 17.656-0.72378 6.3227-3.1594 10.302-8.0273 14.344-7.833 5.3086-16.142 4.8358-25.312 4.625v23h-16v-66z" fill="#213D74"/>
<path transform="translate(748,599)" d="m0 0h15l1 37c1.9181-2.5575 3.8362-5.115 5.8125-7.75 2.0625-2.75 4.125-5.5 6.1875-8.25 0.46342-0.73219 0.92684-1.4644 1.4043-2.2188 1.5957-1.7812 1.5957-1.7812 3.6804-2.2354 0.78029 0.020947 1.5606 0.041895 2.3645 0.063477 0.84756 0.012891 1.6951 0.025781 2.5684 0.039062 0.88107 0.033516 1.7621 0.067031 2.6699 0.10156 0.89268 0.018047 1.7854 0.036094 2.7051 0.054688 2.2036 0.047135 4.4049 0.11291 6.6074 0.19531-1.277 2.7498-2.6525 4.9605-4.6445 7.2422-0.5124 0.59168-1.0248 1.1834-1.5527 1.793-0.53303 0.60715-1.0661 1.2143-1.6152 1.8398-1.5633 1.7972-3.1255 3.595-4.6782 5.4014-0.99101 1.1318-2.0061 2.243-3.0459 3.3301-2.8084 3.03-2.8084 3.03-3.5259 6.9795 1.2865 2.923 2.846 4.7379 5.0625 7.0391 12.464 13.303 12.464 13.303 15 18.375-6.6651 1.1466-13.466 2.2173-20 0-6.0964-4.8127-10.599-12.073-14-19v-2h-2v21h-15v-69z" fill="#1F3C73"/>
<path transform="translate(471.29 615.58)" d="m0 0c5.8378 2.4634 8.8036 6.948 11.715 12.418 1.2739 3.8216 1.1235 7.4068 1.0977 11.387-0.001415 0.81701-0.0028299 1.634-0.0042877 2.4758-0.0055956 2.6084-0.018147 5.2167-0.030869 7.825-0.0050156 1.7689-0.0095784 3.5378-0.013672 5.3066-0.010172 4.3353-0.029748 8.6705-0.048828 13.006h-16c-0.060586-2.3358-0.12117-4.6716-0.18359-7.0781-0.061843-2.2671-0.12521-4.5342-0.18872-6.8013-0.043259-1.5732-0.08494-3.1464-0.125-4.7197-0.057922-2.264-0.12155-4.5277-0.18628-6.7915-0.016712-0.70119-0.033425-1.4024-0.050644-2.1248-0.048103-4.8528-0.048103-4.8528-1.2658-9.4846-2.9483-0.98276-4.9265-1.1341-8-1.125-0.86625-0.0025781-1.7325-0.0051562-2.625-0.0078125-2.5251 0.03687-2.5251 0.03687-5.375 1.1328-1.2016 3.6048-1.2302 6.9729-1.3164 10.73-0.020781 0.75042-0.041562 1.5008-0.062973 2.274-0.06532 2.3943-0.1243 4.7886-0.18312 7.183-0.043202 1.6244-0.086817 3.2487-0.13086 4.873-0.10778 3.9797-0.20698 7.9595-0.30664 11.939h-16v-52h16l1 5 2.25-1.875c6.2016-4.7922 12.401-5.4874 20.035-3.543z" fill="#203D74"/>
<path transform="translate(805,616)" d="m0 0h16c0.025781 2.3242 0.051562 4.6484 0.078125 7.043 0.038456 2.2606 0.083604 4.521 0.12939 6.7815 0.028157 1.5663 0.049398 3.1327 0.063477 4.6992 0.021504 2.2572 0.068186 4.5126 0.11963 6.7693 0.0012286 0.69603 0.0024573 1.3921 0.0037231 2.1092 0.14233 4.7662 1.2024 7.2643 4.6057 10.598 3.0662 0.86913 5.8888 0.63482 9 0 2.5016-1.8762 3.6195-3.2389 5-6 0.15608-2.4056 0.25804-4.787 0.31641-7.1953 0.020781-0.70744 0.041562-1.4149 0.062973-2.1438 0.065432-2.2619 0.12435-4.5239 0.18312-6.7859 0.043191-1.5326 0.086806-3.0651 0.13086-4.5977 0.10792-3.759 0.20704-7.5181 0.30664-11.277h16v52h-16l-1-6-2.8125 2.4375c-4.8076 4.1666-9.7363 3.9727-15.887 3.8906-4.9708-0.49413-7.7591-1.8811-11.301-5.3281-6.7403-8.6127-5.5728-18.817-5.3125-29.125 0.025124-1.7369 0.04793-3.4739 0.068359-5.2109 0.050369-4.2229 0.14826-8.4409 0.24414-12.664z" fill="#223F75"/>
<path transform="translate(558,616)" d="m0 0h16c0.025781 2.3242 0.051562 4.6484 0.078125 7.043 0.038456 2.2606 0.083604 4.521 0.12939 6.7815 0.028157 1.5663 0.049398 3.1327 0.063477 4.6992 0.021504 2.2572 0.068186 4.5126 0.11963 6.7693 0.0012286 0.69603 0.0024573 1.3921 0.0037231 2.1092 0.14233 4.7662 1.2024 7.2643 4.6057 10.598 3.0662 0.86913 5.8888 0.63482 9 0 2.5016-1.8762 3.6195-3.2389 5-6 0.15608-2.4056 0.25804-4.787 0.31641-7.1953 0.020781-0.70744 0.041562-1.4149 0.062973-2.1438 0.065432-2.2619 0.12435-4.5239 0.18312-6.7859 0.043191-1.5326 0.086806-3.0651 0.13086-4.5977 0.10792-3.759 0.20704-7.5181 0.30664-11.277h16v52h-16l-1-6-2.8125 2.4375c-4.8076 4.1666-9.7363 3.9727-15.887 3.8906-4.9708-0.49413-7.7591-1.8811-11.301-5.3281-6.7403-8.6127-5.5728-18.817-5.3125-29.125 0.025124-1.7369 0.04793-3.4739 0.068359-5.2109 0.050369-4.2229 0.14826-8.4409 0.24414-12.664z" fill="#223F75"/>
<path transform="translate(725.31 616.62)" d="m0 0c4.6855 2.6882 7.6803 5.9906 9.8081 11.028 1.0788 4.1061 1.1307 7.8041 1.0747 12.027-0.0028299 0.81276-0.0056598 1.6255-0.0085754 2.4629-0.011131 2.5776-0.036222 5.1549-0.061737 7.7324-0.010039 1.7552-0.019163 3.5104-0.027344 5.2656-0.021966 4.2866-0.056446 8.5729-0.097656 12.859h-15c-0.056074-3.378-0.056074-3.378-0.11328-6.8242-0.046267-2.1911-0.097482-4.382-0.14917-6.573-0.033168-1.5178-0.061225-3.0357-0.083984-4.5537-0.033697-2.1875-0.086016-4.3738-0.14185-6.5608-0.026184-1.3144-0.052368-2.6289-0.079346-3.9832-0.45134-3.6589-1.2176-5.5932-3.4324-8.5051-3.4474-1.7237-7.2304-1.5031-11-1-2.5016 1.8762-3.6195 3.2389-5 6-0.15608 2.4056-0.25804 4.787-0.31641 7.1953-0.020781 0.70744-0.041562 1.4149-0.062973 2.1438-0.065432 2.2619-0.12435 4.5239-0.18312 6.7859-0.043191 1.5326-0.086806 3.0651-0.13086 4.5977-0.10792 3.759-0.20704 7.5181-0.30664 11.277h-15v-52h15l1 6c0.47051-0.42152 0.94102-0.84305 1.4258-1.2773 0.62262-0.54785 1.2452-1.0957 1.8867-1.6602 0.61488-0.54527 1.2298-1.0905 1.8633-1.6523 5.2474-4.0564 13.358-3.4326 19.137-0.78516z" fill="#1F3C73"/>
<path transform="translate(916.12 614.82)" d="m0 0c7.377-0.42118 13.308 2.07 19.195 6.4336 3.8213 3.9102 6.6875 8.1669 6.6875 13.75-2.7308 0.13549-5.4549 0.2343-8.1875 0.3125-0.76893 0.041895-1.5379 0.083789-2.3301 0.12695-4.3609 0.093582-5.9013 0.070226-9.3105-2.9199-0.71672-0.83145-1.4334-1.6629-2.1719-2.5195-3.543-0.83346-3.543-0.83346-7 0-3.7356 3.6373-4.9042 6.5624-5.25 11.75 0.04864 4.3857 1.2009 7.3883 3.25 11.25 3.134 1.567 6.6316 1.8516 10 1 0.56461-0.82629 1.1292-1.6526 1.7109-2.5039 2.2891-2.4961 2.2891-2.4961 4.1968-2.9072 2.2983-0.080535 4.546-0.02513 6.8423 0.098633 1.1892 0.033838 1.1892 0.033838 2.4023 0.068359 1.95 0.058736 3.8991 0.14841 5.8477 0.24414-1.8159 6.6436-3.7873 12.428-9.9961 16.219-8.2112 4.2186-15.82 4.8751-24.805 2.5859-6.3342-2.3176-10.099-6.0305-13.137-11.992-3.5305-7.7909-4.4032-15.332-1.8125-23.625 3.0323-7.8173 7.34-12.337 14.75-16.188 3.1298-0.78244 5.9324-0.90742 9.1172-1.1836z" fill="#233F76"/>
<path transform="translate(631,462)" d="m0 0c0.099248 4.8746 0.17165 9.7486 0.21973 14.624 0.020054 1.6567 0.047304 3.3133 0.082031 4.9697 0.048797 2.3882 0.071273 4.7755 0.088867 7.1641 0.020645 0.73461 0.04129 1.4692 0.062561 2.2261 0.0022258 5.1591-1.0538 8.1386-4.4532 12.016-3.6653 1.8419-6.6335 2.2454-10.708 2.2271-1.1208-1.5106e-4 -2.2416-3.0212e-4 -3.3963-4.5776e-4 -1.1991-0.010323-2.3983-0.020645-3.6337-0.031281-1.8539-0.0042448-1.8539-0.0042448-3.7452-0.0085754-3.2732-0.0092849-6.5462-0.027231-9.8194-0.049408-3.345-0.020521-6.69-0.029436-10.035-0.039673-6.5541-0.022038-13.108-0.0555-19.662-0.097656v-2c0.50112-0.23485 1.0022-0.4697 1.5186-0.71167 20.977-9.925 39.291-22.512 57.531-36.799 4.5705-3.4895 4.5705-3.4895 5.9509-3.4895z" fill="#24407D"/>
<path transform="translate(522,629)" d="m0 0c3.4417 1.2576 5.4522 2.3792 7.875 5.125 2.049 5.2363 1.7632 9.9603 0 15.25-2.3405 3.2767-4.0782 4.3107-7.875 5.625-4.1567 0.51048-6.2021 0.47873-9.8125-1.6875-4.0538-4.2855-4.6361-8.3553-4.5117-14.094 0.50625-3.4644 2.0866-5.5975 4.3242-8.2188 3.7418-2.4946 5.5624-2.3761 10-2z" fill="#F7F8F9"/>
<path transform="translate(649,629)" d="m0 0c4.0592 2.1048 6.3049 3.7739 8 8 0.78238 5.5884 0.26306 10.274-3 15-3.3318 2.8559-6.5862 3.6963-11 3.5625-3.8553-1.0843-5.8885-4.3332-8-7.5625-1.6061-3.2122-1.4802-6.5156-1-10 1.8125-3.3125 1.8125-3.3125 4-6l1.25-1.875c3.0476-1.9591 6.3107-1.7166 9.75-1.125z" fill="#F8F9FA"/>
<path transform="translate(396,629)" d="m0 0c4.5498 1.9046 6.7771 4.6365 9 9 0.87316 4.4187 0.35968 7.294-1.6875 11.312-3.3862 3.9353-5.6229 5.4763-10.812 6.125-4.1386-0.51732-5.6545-1.4294-8.5-4.4375-2.759-4.4669-2.6945-9.9128-2-15 3.586-5.9354 7.155-7.5901 14-7z" fill="#F8F9FA"/>
<path transform="translate(976.88 628.43)" d="m0 0c3.3578 0.90902 5.0308 2.8961 7.1211 5.5742l1 1c0.12602 2.1013 0.17579 4.2074 0.1875 6.3125 0.01418 1.1511 0.028359 2.3023 0.042969 3.4883-0.22056 3.0616-0.55732 4.6749-2.2305 7.1992-3.3684 2.774-6.594 3.7406-10.996 3.5234-3.276-0.85571-4.9392-2.5102-6.9258-5.1953-2.1779-4.7029-2.0741-9.3146-1.0781-14.328 2.6469-5.9083 6.4771-8.06 12.879-7.5742z" fill="#F9FAFB"/>
<path transform="translate(326,615)" d="m0 0c12.196-0.49277 12.196-0.49277 15.887 1.7695 2.1133 2.2305 2.1133 2.2305 2.7383 6.168-0.24349 3.0295-0.76593 4.313-2.3125 7.0625-5.3096 3.2058-10.191 2.3091-16.312 2v-17z" fill="#F5F6F8"/>
<path transform="translate(831,435)" d="m0 0c6.1583 1.3856 9.582 4.7549 14 9 0.56445 0.53335 1.1289 1.0667 1.7104 1.6162 1.9223 1.8229 3.8266 3.6631 5.7271 5.5088 0.62777 0.5978 1.2555 1.1956 1.9023 1.8115 5.6037 5.5331 5.6037 5.5331 5.6602 10.063l-1 2c-6.5768-1.28-10.073-5.6558-14.5-10.312-1.4664-1.5192-2.9351-3.0362-4.4062-4.5508-0.69408-0.7172-1.3882-1.4344-2.1033-2.1733-1.7626-1.7386-3.5567-3.298-5.4944-4.8345-2.4961-2.1289-2.4961-2.1289-2.9336-4.8789 0.4375-2.25 0.4375-2.25 1.4375-3.25z" fill="#344C82"/>
<path transform="translate(857.84 153.21)" d="m0 0c0.71188 0.26168 1.4238 0.52336 2.1572 0.79297-0.52814 3.868-1.4035 5.9281-4.0547 8.7812-0.63132 0.68578-1.2626 1.3716-1.9131 2.0781-0.67063 0.70641-1.3413 1.4128-2.0322 2.1406-0.65774 0.70641-1.3155 1.4128-1.9932 2.1406-2.0191 2.1453-4.0702 4.2549-6.1318 6.3594-1.0345 1.0905-1.0345 1.0905-2.0898 2.2031-0.67418 0.68578-1.3484 1.3716-2.043 2.0781-0.59958 0.61939-1.1992 1.2388-1.8169 1.877-2.4411 1.7013-4.0129 1.6003-6.9253 1.3418 0.36066-5.9482 1.7823-8.5487 5.9531-12.75 0.74585-0.75446 0.74585-0.75446 1.5068-1.5242 1.0485-1.0525 2.1045-2.0976 3.1675-3.1355 1.6254-1.5931 3.2161-3.2159 4.8062-4.8442 1.0254-1.0215 2.0527-2.0411 3.082-3.0586 0.93103-0.92426 1.8621-1.8485 2.8213-2.8008 2.6631-1.8867 2.6631-1.8867 5.5059-1.6797z" fill="#2B467D"/>
<path transform="translate(879,652)" d="m0 0c3.4204 1.1701 3.9154 1.8731 6 5 0.5 3.375 0.5 3.375 0 7-3.2296 3.7022-4.7164 4.7973-9.5625 5.5625-4.1178-0.67381-5.731-1.3784-8.4375-4.5625-1.0333-2.7498-1.3757-5.0813-1-8 3.6016-5.5766 6.8687-5.6813 13-5z" fill="#264278"/>
<path transform="translate(484,305)" d="m0 0h41l1 5c-3.3839 1.692-7.2248 1.1199-10.945 1.0977-0.88501-0.001415-1.77-0.0028299-2.6819-0.0042877-2.8326-0.0056071-5.6652-0.018161-8.4978-0.030869-1.918-0.0050141-3.8359-0.0095772-5.7539-0.013672-4.7071-0.011038-9.4141-0.028308-14.121-0.048828v-6z" fill="#3A548B"/>
<path transform="translate(705,489)" d="m0 0h6v40h-6v-40z" fill="#203A74"/>
<path transform="translate(705,489)" d="m0 0h1v37h4v-37h1v40h-6v-40z" fill="#3B5285"/>
<path transform="translate(646,499)" d="m0 0c1.4797 0.1405 2.9587 0.28755 4.4375 0.4375 1.2356 0.12182 1.2356 0.12182 2.4961 0.24609 2.0664 0.31641 2.0664 0.31641 3.0664 1.3164 0.040638 1.6662 0.042721 3.3339 0 5-6.4 0.36923-6.4 0.36923-9.4375-1.5l-1.5625-1.5 1-4z" fill="#486290"/>
<path transform="translate(486,498)" d="m0 0v5h-4v2c-3.63-0.66-7.26-1.32-11-2 3.2718-3.2718 4.2465-3.5117 8.625-4.1875 1.4734-0.23783 1.4734-0.23783 2.9766-0.48047 2.3984-0.33203 2.3984-0.33203 3.3984-0.33203z" fill="#78B760"/>
<path transform="translate(835.75,460.25)" d="m0 0 2.25 0.75c-0.54162 3.7913-1.9928 5.6611-5 8-2.75 0.25-2.75 0.25-5 0 0.34584-3.1126 0.8738-4.8287 2.75-7.375 2.25-1.625 2.25-1.625 5-1.375z" fill="#445C8B"/>
<path transform="translate(542,426)" d="m0 0c6.0941 2.1412 6.0941 2.1412 8 5-0.3125 2.6875-0.3125 2.6875-1 5-3.0315-0.32773-4.6157-0.64135-6.875-2.75-1.4224-2.8447-1.0367-4.2662-0.125-7.25z" fill="#36558B"/>
<path transform="translate(531,410)" d="m0 0c3.8428 1.2463 6.0732 2.3605 8 6-0.3125 2.25-0.3125 2.25-1 4-4 0-4 0-6.3125-2.1875-1.6875-2.8125-1.6875-2.8125-1.4375-5.625 0.2475-0.72188 0.495-1.4438 0.75-2.1875z" fill="#3D5889"/>
<path transform="translate(906,334)" d="m0 0h4c0.053997 1.4579 0.092792 2.9164 0.125 4.375 0.023203 0.81211 0.046406 1.6242 0.070312 2.4609-0.19531 2.1641-0.19531 2.1641-2.1953 4.1641h-4c-0.053997-1.4579-0.092792-2.9164-0.125-4.375-0.034805-1.2182-0.034805-1.2182-0.070312-2.4609 0.19531-2.1641 0.19531-2.1641 2.1953-4.1641z" fill="#5A719E"/>
<path transform="translate(501,321)" d="m0 0 5 2v9c-1.6661 0.042721-3.3338 0.040638-5 0-1-1-1-1-1.1328-3.0312 0.0025781-0.81469 0.0051562-1.6294 0.0078125-2.4688-0.0025781-0.81469-0.0051562-1.6294-0.0078125-2.4688 0.13281-2.0312 0.13281-2.0312 1.1328-3.0312z" fill="#5B719D"/>
<path transform="translate(869,189)" d="m0 0c3.8428 1.2463 6.0732 2.3605 8 6-0.3125 2.25-0.3125 2.25-1 4-3.0315-0.32773-4.6157-0.64135-6.875-2.75-1.4224-2.8447-1.0367-4.2662-0.125-7.25z" fill="#3C5687"/>
<path transform="translate(805,482)" d="m0 0c1 3 1 3 0 6-3.0079 2.0411-5.422 2.1988-9 2 0.35995-2.6636 0.71161-4.5818 2.25-6.8125 2.3301-1.5811 3.995-1.4109 6.75-1.1875z" fill="#39558B"/>
<path transform="translate(742,108)" d="m0 0c7.4286-0.28571 7.4286-0.28571 11 2l-1 4h-9l-1-6z" fill="#3E578E"/>
<path transform="translate(726.85 505.9)" d="m0 0c2.0508 0.032552 4.1016 0.065104 6.1523 0.097656 0.38219 1.6561 0.71395 3.3246 1 5-1 1-1 1-3.0664 1.0977-0.82371-0.011602-1.6474-0.023203-2.4961-0.035156-0.82629-0.0090234-1.6526-0.018047-2.5039-0.027344-0.63809-0.011602-1.2762-0.023203-1.9336-0.035156-0.042721-1.6661-0.040638-3.3338 0-5 1-1 1-1 2.8477-1.0977z" fill="#466191"/>
<path transform="translate(522,394)" d="m0 0c3.6532 1.2498 4.7807 1.671 7 5-0.375 2.6875-0.375 2.6875-1 5-2.375-0.25-2.375-0.25-5-1-1.375-1.75-1.375-1.75-2-4 0.375-2.75 0.375-2.75 1-5z" fill="#385589"/>
<path transform="translate(504,340)" d="m0 0c3.6923 0.69231 3.6923 0.69231 5 2 0.0718 1.5193 0.08392 3.0417 0.0625 4.5625-0.0090234 0.82629-0.018047 1.6526-0.027344 2.5039-0.017402 0.95713-0.017402 0.95713-0.035156 1.9336l-5-1c-0.19412-1.4783-0.38012-2.9577-0.5625-4.4375-0.10441-0.82371-0.20883-1.6474-0.31641-2.4961-0.039961-0.68191-0.079922-1.3638-0.12109-2.0664l1-1z" fill="#3F588D"/>
<path transform="translate(771,498)" d="m0 0c-0.375 2.4375-0.375 2.4375-1 5-3.2145 1.6073-6.4361 1.0575-10 1 0.3125-1.875 0.3125-1.875 1-4 3.6442-2.4295 5.7124-2.1618 10-2z" fill="#355186"/>
<path transform="translate(789,491)" d="m0 0c-0.3125 2.375-0.3125 2.375-1 5-3.4352 2.2901-4.9853 2.1784-9 2 0.3125-2.375 0.3125-2.375 1-5 3.4352-2.2901 4.9853-2.1784 9-2z" fill="#3A568B"/>
<path transform="translate(873.19 420.31)" d="m0 0 1.8125 0.6875c-0.52244 3.7616-1.2227 6.3219-4 9-2.6875 0.25-2.6875 0.25-5 0 2.5391-10.352 2.5391-10.352 7.1875-9.6875z" fill="#395387"/>
<path transform="translate(505,263)" d="m0 0 4 1-1 9-5 1c-0.053997-1.4579-0.092792-2.9164-0.125-4.375-0.034805-1.2182-0.034805-1.2182-0.070312-2.4609 0.19531-2.1641 0.19531-2.1641 2.1953-4.1641z" fill="#3B5890"/>
<path transform="translate(880,205)" d="m0 0c1.8125 0.1875 1.8125 0.1875 4 1 1.8125 2.3125 1.8125 2.3125 3 5-0.3125 2.3125-0.3125 2.3125-1 4-2.375-0.25-2.375-0.25-5-1-1.375-1.75-1.375-1.75-2-4 0.375-2.75 0.375-2.75 1-5z" fill="#395688"/>
<path transform="translate(538,193)" d="m0 0c-0.50712 3.7189-1.1161 6.7345-3 10h-5c0.69099-6.0807 1.2778-10 8-10z" fill="#3F598C"/>
<path transform="translate(674,107)" d="m0 0 1 4c-3.0889 2.0593-3.7094 2.239-7.1875 2.125l-3.8125-0.125c0.375-2.4375 0.375-2.4375 1-5 2.9566-1.4783 5.7423-1.0603 9-1z" fill="#415A8D"/>
<path transform="translate(513,377)" d="m0 0c2.375-0.1875 2.375-0.1875 5 0 2.4295 3.6442 2.1618 5.7124 2 10h-4c-2.0344-3.7297-3-5.6691-3-10z" fill="#3A5486"/>
<path transform="translate(761,113)" d="m0 0c2.97 0.33 5.94 0.66 9 1l1 5c-7.5077 0.36923-7.5077 0.36923-10-1.5l-1-1.5 1-3z" fill="#344E87"/>
<path transform="translate(516,227)" d="m0 0h4c0.22433 3.2901 0.3038 5.4228-1.25 8.375-1.75 1.625-1.75 1.625-5.75 1.625 0.75-6.625 0.75-6.625 3-10z" fill="#3E5989"/>
<path transform="translate(797,127)" d="m0 0c3.4031 1.0588 6.0135 2.009 9 4v4c-6.625-0.75-6.625-0.75-10-3l1-5z" fill="#35528B"/>
<path transform="translate(683,507)" d="m0 0h10l1 5h-10l-1-5z" fill="#3E5C91"/>
<path transform="translate(752,503)" d="m0 0 1 4c-3.4019 2.0935-6.0527 2.1794-10 2l-1-4c3.6442-2.4295 5.7124-2.1618 10-2z" fill="#3A5484"/>
<path transform="translate(881,404)" d="m0 0 4 1c-0.5232 3.7671-1.2739 6.2739-4 9h-4c0.47945-4.2191 1.1663-6.7966 4-10z" fill="#435C8B"/>
<path transform="translate(524,210)" d="m0 0 5 1c-0.78208 2.7913-1.6171 5.4448-3 8-2.6875 1-2.6875 1-5 1 0.75-6.625 0.75-6.625 3-10z" fill="#3F598A"/>
<path transform="translate(780,119)" d="m0 0c2.97 0.99 5.94 1.98 9 3v4c-6.625 0.125-6.625 0.125-10-1-0.042721-1.6661-0.040638-3.3338 0-5l1-1z" fill="#425B8F"/>
<path transform="translate(858,435)" d="m0 0c2.625-0.1875 2.625-0.1875 5 0-0.55729 3.3437-1.3517 6.0331-3 9h-5c0.49798-3.7349 0.87492-5.8124 3-9z" fill="#3F5A89"/>
<path transform="translate(502,282)" d="m0 0 4 1v9l-5 1c-0.026882-1.6457-0.046341-3.2916-0.0625-4.9375-0.011602-0.91652-0.023203-1.833-0.035156-2.7773 0.097656-2.2852 0.097656-2.2852 1.0977-3.2852z" fill="#213E7D"/>
<path transform="translate(664,504)" d="m0 0c7.4286-0.28571 7.4286-0.28571 11 2v3h-11v-5z" fill="#2D4880"/>
<path transform="translate(902,353)" d="m0 0h4l-1 9-5 1c-0.25-6.625-0.25-6.625 2-10z" fill="#3E588C"/>
<path transform="translate(544,178)" d="m0 0h5c-0.49798 3.7349-0.87492 5.8124-3 9-2.625 0.1875-2.625 0.1875-5 0 0.55729-3.3437 1.3517-6.0331 3-9z" fill="#3A518A"/>
<path transform="translate(858,174)" d="m0 0c2.9375 1.125 2.9375 1.125 6 3 0.875 3.1875 0.875 3.1875 1 6-4 0-4 0-6.3125-1.6875-1.6875-2.3125-1.6875-2.3125-1.4375-5.0625l0.75-2.25z" fill="#354F85"/>
<path transform="translate(829,149)" d="m0 0c3.7349 0.49798 5.8124 0.87492 9 3l-1 5c-5.75-1.75-5.75-1.75-8-4v-4z" fill="#334F84"/>
<path transform="translate(656,111)" d="m0 0-1 5-9 1c0.375-2.4375 0.375-2.4375 1-5 2.9566-1.4783 5.7423-1.0603 9-1z" fill="#334D84"/>
<path transform="translate(686.29 104.9)" d="m0 0c1.3748 0.017402 1.3748 0.017402 2.7773 0.035156 0.9191 0.0090234 1.8382 0.018047 2.7852 0.027344 0.71027 0.011602 1.4205 0.023203 2.1523 0.035156-0.875 3.875-0.875 3.875-2 5-2.6706 0.14115-5.3243 0.042471-8 0-0.5625-1.9375-0.5625-1.9375-1-4 1-1 1-1 3.2852-1.0977z" fill="#38518A"/>
<path transform="translate(819.62 472.88)" d="m0 0 3.375 0.125c-1.5221 2.629-2.8437 4.8437-5 7-2.625 0.125-2.625 0.125-5 0 0.78458-4.969 1.1311-6.9356 6.625-7.125z" fill="#2A4983"/>
<path transform="translate(889,388)" d="m0 0h4l-2 9-5 1c0.75-6.625 0.75-6.625 3-10z" fill="#3B5788"/>
<path transform="translate(896,371)" d="m0 0h4l-1 9-5 1c0.1405-1.4797 0.28755-2.9587 0.4375-4.4375 0.081211-0.82371 0.16242-1.6474 0.24609-2.4961 0.31641-2.0664 0.31641-2.0664 1.3164-3.0664z" fill="#395387"/>
<path transform="translate(508,359)" d="m0 0c1.6754 0.28605 3.3439 0.61781 5 1v9h-4c-0.36116-1.4775-0.71375-2.957-1.0625-4.4375-0.19723-0.82371-0.39445-1.6474-0.59766-2.4961-0.16822-1.0229-0.16822-1.0229-0.33984-2.0664l1-1z" fill="#385288"/>
<path transform="translate(723,105)" d="m0 0h9l1 5h-9l-1-5z" fill="#2F4A84"/>
<path transform="translate(508,246)" d="m0 0h6l-3 9h-4l1-9z" fill="#385386"/>
<path transform="translate(814,138)" d="m0 0c5.5385 0.49231 5.5385 0.49231 7.875 3.0625 0.55688 0.95906 0.55688 0.95906 1.125 1.9375l-1 2c-3.7349-0.49798-5.8124-0.87492-9-3l1-4z" fill="#324E87"/>
<path transform="translate(888,222)" d="m0 0c2.4375 0.6875 2.4375 0.6875 5 2 0.8125 2.625 0.8125 2.625 1 5h-5l-1-7z" fill="#4F6899"/>
<path transform="translate(847,255)" d="m0 0 2 1-1 6-5-2c0.3125-1.9375 0.3125-1.9375 1-4 0.99-0.33 1.98-0.66 3-1z" fill="#72B65C"/>
<path transform="translate(905,335)" d="m0 0h4c0.1875 2.375 0.1875 2.375 0 5l-3 2c-1-1-1-1-1.0625-4.0625l0.0625-2.9375z" fill="#27437C"/>
<path transform="translate(816,473)" d="m0 0h7c-2.75 4.875-2.75 4.875-5 6v-4h-2v-2z" fill="#375287"/>
<path transform="translate(501,323)" d="m0 0h3v7c-0.99 0.33-1.98 0.66-3 1v-8z" fill="#1F3C7A"/>
<path transform="translate(502,282)" d="m0 0 4 1v9h-1v-7l-4 2 1-5z" fill="#40598E"/>
<path transform="translate(784,121)" d="m0 0 5 1v4c-2.97-0.495-2.97-0.495-6-1l1-4z" fill="#23417F"/>
<path transform="translate(504,340)" d="m0 0h3c-0.875 4.75-0.875 4.75-2 7h-2c-0.042544-1.9995-0.040808-4.0004 0-6l1-1z" fill="#355089"/>
<path transform="translate(797,127)" d="m0 0 4 1-2 4h-3l1-5z" fill="#435D92"/>
<path transform="translate(653,500)" d="m0 0c0.99 0.33 1.98 0.66 3 1v4h-4l1-5z" fill="#385485"/>
<path transform="translate(871,420)" d="m0 0c2.0625 0.4375 2.0625 0.4375 4 1v3l-2.375-0.0625c-2.6061-0.12434-2.6061-0.12434-4.625 1.0625 1.875-3.875 1.875-3.875 3-5z" fill="#566E9B"/>
<path transform="translate(548,155)" d="m0 0h3v6c-0.99-0.33-1.98-0.66-3-1-0.75-2-0.75-2-1-4l1-1z" fill="#3F598E"/>
</svg>
