<?xml version="1.0" standalone="no"?>
<!DOCTYPE svg PUBLIC "-//W3C//DTD SVG 20010904//EN"
 "http://www.w3.org/TR/2001/REC-SVG-20010904/DTD/svg10.dtd">
<svg version="1.0" xmlns="http://www.w3.org/2000/svg"
 width="1408.000000pt" height="768.000000pt" viewBox="0 0 1408.000000 768.000000"
 preserveAspectRatio="xMidYMid meet">

<g transform="translate(0.000000,768.000000) scale(0.100000,-0.100000)"
fill="#000000" stroke="none">
<path d="M7057 6024 c-4 -4 -7 -97 -7 -206 l0 -198 -689 0 -690 0 -27 -24
c-24 -20 -29 -34 -35 -97 -4 -41 -8 -753 -8 -1583 l-1 -1508 38 28 c165 123
418 360 585 547 l87 99 0 99 0 99 80 0 80 0 106 142 c58 78 133 181 165 229
89 132 116 139 230 56 479 -347 481 -348 513 -341 75 16 227 70 301 107 122
61 192 112 285 207 132 135 223 306 266 504 17 76 17 77 -4 99 -33 35 -29 79
9 112 l32 26 -7 107 c-19 297 -112 532 -283 713 -208 218 -497 337 -913 374
l-65 6 0 202 c0 196 -1 202 -20 205 -12 2 -24 0 -28 -4z m38 -974 c195 -23
306 -69 405 -169 70 -71 109 -140 137 -243 23 -85 23 -279 0 -368 -47 -179
-157 -303 -322 -365 -117 -44 -212 -53 -622 -60 l-383 -5 0 610 0 610 348 0
c191 0 388 -5 437 -10z"/>
<path d="M6870 5861 c-26 -4 -35 -11 -35 -26 0 -17 6 -20 44 -18 52 2 70 15
51 38 -7 8 -15 14 -19 14 -3 -1 -22 -4 -41 -8z"/>
<path d="M7234 5845 c-10 -24 6 -35 52 -35 36 0 44 3 44 19 0 30 -85 45 -96
16z"/>
<path d="M6663 5830 c-25 -10 -31 -36 -11 -42 15 -5 86 7 95 15 3 4 3 13 0 22
-7 17 -49 19 -84 5z"/>
<path d="M7424 5815 c-4 -10 -1 -21 6 -25 25 -15 82 -22 93 -11 16 16 -10 38
-55 46 -30 6 -39 4 -44 -10z"/>
<path d="M6488 5789 c-32 -12 -39 -49 -9 -49 37 0 82 22 79 39 -4 19 -33 23
-70 10z"/>
<path d="M7610 5761 c0 -19 43 -41 81 -41 33 0 23 37 -12 49 -48 16 -69 14
-69 -8z"/>
<path d="M6330 5730 c-11 -7 -7 -10 18 -10 20 0 31 4 27 10 -8 13 -26 13 -45
0z"/>
<path d="M7797 5713 c-22 -22 25 -63 73 -63 37 0 24 36 -20 54 -46 18 -45 18
-53 9z"/>
<path d="M7967 5623 c-13 -12 -7 -21 29 -43 39 -22 64 -21 64 4 0 26 -75 57
-93 39z"/>
<path d="M8134 5525 c-8 -20 9 -40 47 -55 22 -9 33 -10 41 -2 14 14 -4 37 -43
58 -35 18 -38 18 -45 -1z"/>
<path d="M8293 5413 c-4 -11 4 -26 25 -45 37 -32 50 -35 59 -11 4 11 -4 25
-27 45 -40 32 -48 34 -57 11z"/>
<path d="M8438 5253 c-124 -124 -146 -157 -112 -170 23 -8 276 244 272 272 -2
11 -10 21 -18 23 -8 1 -72 -55 -142 -125z"/>
<path d="M5475 5350 c-7 -12 12 -40 26 -40 5 0 9 11 9 25 0 25 -23 35 -35 15z"/>
<path d="M8577 5163 c-13 -12 -7 -31 18 -62 27 -31 55 -32 55 -2 0 10 -13 29
-28 44 -30 29 -35 31 -45 20z"/>
<path d="M5431 5099 c-23 -31 -22 -59 2 -59 16 0 57 53 57 75 0 26 -35 17 -59
-16z"/>
<path d="M8692 5007 c-9 -10 -5 -23 14 -50 27 -40 36 -44 52 -24 9 10 5 23
-14 50 -27 40 -36 44 -52 24z"/>
<path d="M5338 4963 c-24 -28 -40 -62 -33 -73 12 -19 34 -9 55 25 31 50 13 88
-22 48z"/>
<path d="M8794 4845 c-8 -19 27 -79 49 -83 23 -5 22 25 -3 66 -21 35 -37 41
-46 17z"/>
<path d="M5227 4781 c-21 -36 -22 -57 -2 -65 17 -6 55 46 55 77 0 27 -34 20
-53 -12z"/>
<path d="M8884 4675 c-9 -23 3 -45 26 -45 23 0 27 29 8 48 -16 16 -27 15 -34
-3z"/>
<path d="M5145 4601 c-9 -22 -14 -44 -11 -50 14 -22 37 -10 52 25 28 68 -11
92 -41 25z"/>
<path d="M5084 4424 c-17 -41 -12 -67 12 -62 18 3 48 74 38 89 -12 20 -36 7
-50 -27z"/>
<path d="M5051 4271 c-6 -4 -13 -27 -14 -51 -2 -35 2 -45 15 -48 12 -2 20 7
27 35 6 21 11 43 11 49 0 15 -24 24 -39 15z"/>
<path d="M5016 4075 c-10 -27 -7 -83 5 -91 18 -11 32 13 33 58 1 32 -3 43 -15
46 -9 1 -19 -4 -23 -13z"/>
<path d="M4840 3835 l0 -25 208 2 c199 3 207 4 207 23 0 19 -8 20 -207 23
l-208 2 0 -25z"/>
<path d="M9263 3835 c-3 -9 -3 -18 0 -21 9 -9 27 6 27 22 0 19 -19 18 -27 -1z"/>
<path d="M5013 3688 c-16 -19 -1 -92 19 -96 21 -4 29 24 20 67 -8 38 -23 49
-39 29z"/>
<path d="M9070 3688 c0 -24 16 -39 34 -32 16 6 16 8 0 25 -20 22 -34 25 -34 7z"/>
<path d="M9063 3558 c-19 -24 -23 -75 -7 -89 22 -18 35 0 37 51 2 44 -12 61
-30 38z"/>
<path d="M5034 3496 c-9 -23 15 -96 32 -96 22 0 27 23 14 69 -11 41 -35 55
-46 27z"/>
<path d="M9010 3345 c-13 -40 -8 -65 14 -65 14 0 36 48 36 81 0 35 -37 22 -50
-16z"/>
<path d="M5076 3311 c-10 -15 20 -86 38 -89 24 -5 29 21 12 62 -14 34 -38 47
-50 27z"/>
<path d="M8949 3160 c-10 -31 -10 -43 -1 -52 15 -15 35 4 50 49 11 34 8 43
-19 43 -13 0 -22 -13 -30 -40z"/>
<path d="M5142 3138 c-12 -12 3 -64 24 -88 11 -11 17 -11 26 -2 9 9 9 21 0 51
-13 41 -32 57 -50 39z"/>
<path d="M8875 2991 c-29 -64 8 -89 38 -26 22 46 21 65 -1 65 -12 0 -25 -14
-37 -39z"/>
<path d="M5215 2960 c-8 -13 25 -80 43 -87 26 -10 31 19 11 59 -19 37 -41 49
-54 28z"/>
<path d="M8790 2835 c-23 -37 -21 -65 4 -65 23 0 58 74 43 89 -17 17 -24 14
-47 -24z"/>
<path d="M5312 2798 c-16 -16 25 -88 50 -88 24 0 23 25 -3 66 -22 37 -29 40
-47 22z"/>
<path d="M8685 2675 c-21 -29 -24 -39 -15 -50 18 -22 27 -19 54 22 19 27 23
40 14 50 -16 19 -23 16 -53 -22z"/>
<path d="M5415 2640 c-8 -13 30 -76 49 -83 8 -3 20 0 26 8 9 11 6 22 -15 50
-27 35 -48 44 -60 25z"/>
<path d="M8310 2545 c-6 -8 -10 -19 -8 -24 1 -5 62 -66 135 -135 130 -123 163
-143 163 -96 0 17 -253 270 -270 270 -4 0 -13 -7 -20 -15z"/>
<path d="M8571 2534 c-42 -53 -15 -83 31 -36 20 19 29 36 25 46 -9 24 -33 19
-56 -10z"/>
<path d="M8324 2288 c-46 -36 -55 -54 -30 -64 16 -6 72 31 80 52 3 7 -1 17 -8
23 -10 8 -21 5 -42 -11z"/>
<path d="M6275 2263 c-155 -129 -461 -331 -562 -369 -23 -9 -43 -21 -43 -25 0
-5 120 -9 266 -9 368 0 366 -2 372 230 2 74 2 149 0 167 l-3 31 -30 -25z"/>
<path d="M8152 2163 c-24 -21 -30 -32 -22 -43 8 -13 15 -12 47 6 22 13 39 31
41 43 5 30 -26 27 -66 -6z"/>
<path d="M7993 2070 c-33 -20 -42 -43 -23 -55 16 -10 91 37 88 54 -5 23 -29
24 -65 1z"/>
<path d="M7057 2024 c-4 -4 -7 -94 -7 -200 0 -168 2 -193 16 -198 40 -15 45 8
42 208 -3 184 -4 191 -23 194 -12 2 -24 0 -28 -4z"/>
<path d="M7818 1984 c-28 -15 -36 -38 -18 -49 15 -9 85 28 85 45 0 21 -34 23
-67 4z"/>
<path d="M7638 1919 c-31 -12 -44 -37 -22 -46 8 -3 33 0 55 6 29 9 39 17 37
29 -4 20 -33 25 -70 11z"/>
<path d="M6455 1910 c-10 -16 2 -28 41 -40 39 -13 64 -8 64 14 0 25 -92 48
-105 26z"/>
<path d="M7450 1871 c-16 -4 -25 -14 -25 -26 0 -17 6 -20 39 -18 44 3 67 18
59 39 -5 15 -31 17 -73 5z"/>
<path d="M6640 1857 c0 -9 9 -21 19 -27 26 -13 78 -13 87 1 10 18 -11 31 -60
36 -38 5 -46 3 -46 -10z"/>
<path d="M7272 1843 c-34 -4 -52 -27 -35 -44 6 -6 28 -7 52 -3 35 6 42 10 39
27 -3 23 -10 25 -56 20z"/>
<path d="M6834 1828 c-10 -16 25 -38 63 -38 37 0 56 25 32 41 -20 13 -87 11
-95 -3z"/>
</g>
</svg>
