<?xml version="1.0" encoding="UTF-8"?>
<svg version="1.1" viewBox="0 0 1408 768" xmlns="http://www.w3.org/2000/svg">
<path transform="translate(706,88)" d="m0 0c3.875 0.875 3.875 0.875 5 2 0.088652 2.8843 0.11521 5.7446 0.097656 8.6289-0.0021224 1.2963-0.0021224 1.2963-0.0042877 2.6189-0.0056161 2.7716-0.018171 5.5431-0.030869 8.3147-0.0050129 1.8743-0.0095762 3.7487-0.013672 5.623-0.01105 4.6048-0.028326 9.2096-0.048828 13.814 1.1145-0.020665 1.1145-0.020665 2.2515-0.041748 34.619-0.36444 69.946 11.47 95.296 35.582 19.948 20.049 29.347 49.953 29.89 77.772 0.022397 0.7118 0.044795 1.4236 0.067871 2.157-0.015874 3.4542-0.28093 5.2379-2.4077 8.011-2.0977 1.5195-2.0977 1.5195-4.0977 1.5195 0.3296 5.0154 0.3296 5.0154 3 9 2.9735 14.304-6.3196 30.916-13 43-0.49758 0.95133-0.99516 1.9027-1.5078 2.8828-13.263 23.262-38.588 37.775-63.492 45.117-0.9552 0.28359-1.9104 0.56719-2.8945 0.85938-5.8133 1.4645-9.6801 0.87175-15.105-1.8594-2.8363-1.888-5.4378-4.0182-8.0625-6.1875-7.1645-5.748-14.511-11.145-22.062-16.375-0.95914-0.66604-1.9183-1.3321-2.9065-2.0183-10.069-8.0718-10.069-8.0718-21.988-11.185-4.7527 1.8373-7.2416 6.7018-9.9805 10.766-1.0253 1.4914-2.0514 2.9823-3.0781 4.4727-2.2539 3.2834-4.4946 6.5754-6.7305 9.8711-3.8766 5.6873-7.8318 11.326-12.191 16.656-0.74637 0.92426-1.4927 1.8485-2.2617 2.8008-3.5138 2.822-6.2515 2.7791-10.551 2.5117-0.69287-0.022559-1.3857-0.045117-2.0996-0.068359-1.6969-0.058514-3.3927-0.14819-5.0879-0.24414 0.026184 0.57444 0.052368 1.1489 0.079346 1.7407 0.10457 2.6278 0.16916 5.2552 0.23315 7.8843 0.041895 0.90363 0.083789 1.8073 0.12695 2.7383 0.085143 4.6658-0.010093 6.9877-2.6465 10.973-1.3825 1.3187-1.3825 1.3187-2.793 2.6641-0.7773 0.78762-1.5546 1.5752-2.3555 2.3867-0.8727 0.86238-1.7454 1.7248-2.6445 2.6133-1.7827 1.8807-3.5487 3.7764-5.3157 5.6719-23.33 25.01-23.33 25.01-35.153 34.305-3.5547 2.8416-6.8909 5.9038-10.242 8.9805-1.1331 1.0113-1.1331 1.0113-2.2891 2.043-0.83789 0.76699-1.6758 1.534-2.5391 2.3242-2.4609 1.6758-2.4609 1.6758-4.6147 1.2805-0.60924-0.19956-1.2185-0.39913-1.8462-0.60474-0.068645-39.517-0.12152-79.035-0.1532-118.55-0.0037522-4.6639-0.0076351-9.3278-0.011599-13.992-7.8693e-4 -0.92851-0.0015739-1.857-0.0023846-2.8137-0.013059-15.04-0.036716-30.081-0.064279-45.121-0.02804-15.429-0.044715-30.858-0.050807-46.288-0.0041193-9.523-0.017136-19.046-0.041484-28.569-0.01584-6.5275-0.020655-13.055-0.016755-19.583 0.0019242-3.7678-0.0010551-7.5354-0.017112-11.303-0.017277-4.0837-0.011356-8.167-0.0031471-12.251-0.0087385-1.1926-0.017477-2.3852-0.02648-3.614 0.036805-6.7489 0.24446-11.733 5.2172-16.767 2.7841-1.4723 4.7436-1.5169 7.89-1.5083 1.1667-0.004124 2.3333-0.008248 3.5353-0.012497 1.276 0.010786 2.552 0.021572 3.8667 0.032684 1.3602 8.4641e-4 2.7204 3.7084e-4 4.0805-0.0013275 3.6898-8.6082e-4 7.3794 0.016779 11.069 0.037722 3.857 0.018752 7.7141 0.020516 11.571 0.024076 7.3027 0.0093247 14.605 0.033944 21.908 0.064048 8.3143 0.033531 16.629 0.050027 24.943 0.065086 17.102 0.031359 34.204 0.084127 51.306 0.15097-0.06115-1.5432-0.06115-1.5432-0.12354-3.1177-0.14902-3.8351-0.28345-7.6706-0.41357-11.506-0.058221-1.6567-0.12035-3.3133-0.18652-4.9697-0.094707-2.3878-0.17514-4.7757-0.25293-7.1641-0.048295-1.1019-0.048295-1.1019-0.097565-2.2261-0.12769-4.4327 0.41651-7.9032 2.0741-12.016zm-75 97v121c19.305 0.092812 19.305 0.092812 39 0.1875 4.0309 0.027312 8.0618 0.054624 12.215 0.082764 3.6827 0.010047 3.6827 0.010047 7.3655 0.016068 1.6127 0.0045411 3.2253 0.014952 4.8379 0.030396 14.3 0.12985 28.643-0.49216 41.644-7.1292 0.67998-0.31775 1.36-0.63551 2.0605-0.96289 10.842-5.2912 18.551-14.526 23.303-25.525 6.1134-17.851 5.8916-40.818-2.0508-58.137-6.9923-12.59-18.459-23.41-32.375-27.562-10.426-2.52-20.901-2.2591-31.547-2.1953-1.6558 0.0029476-3.3115 0.0049836-4.9673 0.0061035-6.0786 0.010404-12.157 0.038326-18.236 0.064209-13.612 0.04125-27.225 0.0825-41.25 0.125z" fill="#1E3C7A"/>
<path transform="translate(927,225)" d="m0 0c0.089092 6.1091-0.1941 11.992-0.91797 18.055-0.097536 0.84795-0.19507 1.6959-0.29556 2.5695-0.31876 2.751-0.64586 5.5009-0.97397 8.2508-0.16549 1.4088-0.16549 1.4088-0.33432 2.8461-2.1716 18.473-4.7186 36.885-7.4782 55.279l-3 1c-2.2344-1.4414-2.2344-1.4414-4.75-3.5625-0.8843-0.73219-1.7686-1.4644-2.6797-2.2188-1.5667-1.3524-3.1181-2.7231-4.6406-4.125-1.5737-1.4442-3.2455-2.7801-4.9297-4.0938-3.8604 0.20023-6.2162 2.4963-9 5-1.5025 1.7335-2.9601 3.5068-4.375 5.3125-3.1434 3.9241-6.361 7.5419-9.9648 11.039-4.0379 4.0094-7.6363 8.4394-11.312 12.777-5.7986 6.8273-11.716 13.502-17.84 20.039-3.2875 3.5099-6.4956 7.0685-9.6365 10.711-2.575 2.9191-5.2242 5.7673-7.8711 8.6211-3.8305 4.1314-7.6126 8.2911-11.301 12.551-4.2739 4.9027-8.6684 9.7003-13.027 14.527-3.9877 4.4217-7.9455 8.8649-11.855 13.355-2.8582 3.2516-5.7653 6.4582-8.6875 9.6523-2.1144 2.3312-2.1144 2.3312-3.7891 4.6406-0.4834 0.64711-0.9668 1.2942-1.4648 1.9609-0.39445 0.57105-0.78891 1.1421-1.1953 1.7305-1.6797 1.082-1.6797 1.082-4.8398 1.1172-4.9415-1.3321-8.1356-3.6974-12.152-6.7852-1.5987-1.1917-3.1977-2.3831-4.7969-3.5742-0.81146-0.6115-1.6229-1.223-2.459-1.853-3.7954-2.845-7.6442-5.6146-11.494-8.3853-0.74347-0.53714-1.4869-1.0743-2.2529-1.6277-6.4383-4.6483-12.918-9.2363-19.415-13.802-3.012-2.1173-6.0127-4.2496-9.0078-6.3906-0.77594-0.55293-1.5519-1.1059-2.3513-1.6755-1.4912-1.063-2.9804-2.1288-4.4673-3.1978-1.0044-0.71434-1.0044-0.71434-2.0291-1.4431-0.5883-0.42112-1.1766-0.84224-1.7827-1.2761-1.7731-1.2035-1.7731-1.2035-4.6313-2.0247-0.26039 0.56977-0.52078 1.1395-0.78906 1.7266-6.7277 12.631-19.081 24.07-28.762 34.578-1.3115 1.4433-2.6176 2.8922-3.8853 4.3743-4.9849 5.8228-10.325 11.268-15.742 16.684-1.5609 1.5631-3.1135 3.1339-4.666 4.7053-6.3946 6.4304-13.045 12.289-20.156 17.932-1.3295 1.1072-2.6555 2.2187-3.9766 3.3359-36.131 30.246-77.661 46.233-125.02 43.664-5.7516-0.60528-11.376-1.6674-17-3v-4c0.65259-0.13986 1.3052-0.27973 1.9775-0.42383 14.962-3.2598 29.098-7.157 43.022-13.576 0.68336-0.31211 1.3667-0.62423 2.0708-0.9458 19.773-9.2454 38.784-22.701 55.402-36.771 2.4724-2.0772 5.0072-4.0769 7.5273-6.0957 3.623-2.9701 6.9916-6.0477 10.236-9.4241 1.679-1.6785 3.413-3.2072 5.2249-4.74 5.1868-4.5104 10.045-9.3431 14.902-14.201 1.5631-1.5609 3.1339-3.1135 4.7053-4.666 6.4311-6.3957 12.272-13.058 17.932-20.156 1.4494-1.7079 2.9201-3.3944 4.3962-5.0791 12.162-13.888 22.883-28.913 33.604-43.921 1.013-1.4154 2.026-2.8308 3.0391-4.2461 2.3239-3.2488 4.6437-6.5004 6.9609-9.7539 6.0727 0.34374 9.5832 3.2032 14.25 6.75 1.6079 1.1917 3.216 2.3831 4.8242 3.5742 1.2266 0.91725 1.2266 0.91725 2.478 1.853 3.8077 2.8354 7.6584 5.6102 11.51 8.3853 0.73976 0.53496 1.4795 1.0699 2.2417 1.6211 5.8672 4.2382 11.782 8.4066 17.706 12.565 4.22 2.9723 8.3744 6.0109 12.49 9.1262 7.5842 6.6992 7.5842 6.6992 16.5 10.125 1.4347-1.3796 1.4347-1.3796 2.9375-3.25 3.1082-3.6597 6.3049-7.2233 9.5625-10.75 3.0394-3.2998 6.0616-6.6095 9-10 3.4068-3.9309 6.93-7.752 10.453-11.578 3.1162-3.3901 6.1667-6.827 9.1797-10.309 1.9059-2.1571 3.8547-4.271 5.8115-6.3818 3.9153-4.2254 7.7128-8.4734 11.306-12.981 5.5844-6.933 11.753-13.31 17.872-19.768 2.8662-3.0256 5.7222-6.0603 8.5654-9.1074 0.48058-0.50773 0.96116-1.0155 1.4563-1.5386 3.0106-3.2336 5.6671-6.4909 7.8562-10.336-1.157-3.471-1.8248-3.8156-4.8164-5.6992-0.76377-0.48662-1.5275-0.97324-2.3145-1.4746-0.80244-0.49951-1.6049-0.99902-2.4316-1.5137-0.80631-0.51111-1.6126-1.0222-2.4434-1.5488-1.9934-1.2621-3.9915-2.5162-5.9941-3.7637 0.2348-1.8688 0.2348-1.8688 1-4 1.8233-1.1595 1.8233-1.1595 4.2432-2.0996 0.9083-0.36176 1.8166-0.72352 2.7524-1.0962 0.99662-0.37881 1.9932-0.75762 3.0201-1.1479 1.0312-0.4064 2.0624-0.8128 3.1248-1.2315 3.3644-1.3227 6.7367-2.6238 10.11-3.9247 3.4418-1.3449 6.8817-2.6947 10.322-4.0448 2.279-0.89407 4.5587-1.7863 6.8392-2.6767 6.4425-2.52 12.853-5.0971 19.222-7.798 1.0291-0.43535 1.0291-0.43535 2.079-0.87949 3.06-1.2979 6.1129-2.6094 9.1603-3.9369 1.04-0.44215 2.0799-0.8843 3.1514-1.3398 0.87576-0.38068 1.7515-0.76135 2.6538-1.1536 2.6102-0.75364 3.7717-0.41598 6.3228 0.32935z" fill="#60AD46"/>
<path transform="translate(1050.9 616.25)" d="m0 0c2.9169 1.6668 4.9582 3.1406 7.0625 5.75v2c0.51949-0.48211 1.039-0.96422 1.5742-1.4609 0.69738-0.63164 1.3948-1.2633 2.1133-1.9141 0.68449-0.62648 1.369-1.253 2.0742-1.8984 5.8504-4.5128 12.123-4.4658 19.238-3.7266 5.9386 1.7134 9.5727 4.9598 13 10 2.0202 4.8206 2.2796 9.2703 2.2305 14.426-4.5822e-4 0.7882-9.1644e-4 1.5764-0.0013886 2.3885-0.003006 1.6548-0.010843 3.3096-0.02327 4.9643-0.018378 2.5433-0.020509 5.0863-0.020264 7.6296-0.0049112 1.61-0.010738 3.2201-0.017578 4.8301-0.0011128 0.76347-0.0022256 1.5269-0.0033722 2.3136-0.048506 5.3321-0.048506 5.3321-1.1646 6.4482-2.3316 0.099093-4.6663 0.12971-7 0.125-1.2788 0.0025781-2.5575 0.0051562-3.875 0.0078125-3.125-0.13281-3.125-0.13281-4.125-1.1328-0.12217-2.1474-0.17981-4.2986-0.21094-6.4492-0.028091-1.3366-0.056756-2.6732-0.085938-4.0098-0.041101-2.1086-0.077981-4.2171-0.10449-6.3259-0.0278-2.0344-0.073692-4.0678-0.12207-6.1018-0.029729-1.8286-0.029729-1.8286-0.060059-3.6941-0.45683-3.7503-1.4433-6.2129-3.4165-9.4192-2.1352-0.96568-2.1352-0.96568-4.5-0.9375-0.77344-0.050273-1.5469-0.10055-2.3438-0.15234-2.3416-0.001958-2.3416-0.001958-5.1562 1.0898-3.1242 4.6863-3.1341 9.0374-3.2812 14.578-0.037383 1.2427-0.074766 2.4853-0.11328 3.7656-0.070734 2.6198-0.14104 5.2396-0.21094 7.8594-0.037383 1.2375-0.074766 2.475-0.11328 3.75-0.030293 1.136-0.060586 2.272-0.091797 3.4424-0.18945 2.6045-0.18945 2.6045-1.1895 3.6045-2.3316 0.099093-4.6663 0.12971-7 0.125-1.2788 0.0025781-2.5575 0.0051562-3.875 0.0078125-3.125-0.13281-3.125-0.13281-4.125-1.1328-0.12224-2.2321-0.17982-4.4679-0.21094-6.7031-0.028084-1.3867-0.056748-2.7734-0.085938-4.1602-0.041162-2.1899-0.07804-4.3797-0.10449-6.5698-0.027724-2.1113-0.073609-4.2216-0.12207-6.3325-0.029729-1.8993-0.029729-1.8993-0.060059-3.8369-0.44174-3.6033-1.2326-5.5281-3.4165-8.3975-2.0638-0.99262-2.0638-0.99262-4.375-1.125-0.75023-0.1057-1.5005-0.21141-2.2734-0.32031-3.6665 0.69433-5.03 2.5974-7.3516 5.4453-0.75916 3.5476-0.75916 3.5476-0.67188 7.4531-0.019124 1.0512-0.019124 1.0512-0.038635 2.1237-0.036169 2.2248-0.039008 4.4481-0.03949 6.6732-0.021601 2.2388-0.050003 4.4773-0.082336 6.716-0.025868 2.0207-0.034193 4.0415-0.041687 6.0623-0.12598 2.9717-0.12598 2.9717-1.126 3.9717-2.5114 0.09975-4.989 0.13882-7.5 0.125-0.70254 0.0038672-1.4051 0.0077344-2.1289 0.011719-5.2445-0.010105-5.2445-0.010105-6.3711-1.1367-0.09847-1.56-0.12799-3.1244-0.12939-4.6875-0.0031522-0.99773-0.0063043-1.9955-0.009552-3.0234 0.0020242-1.0854 0.0040485-2.1708 0.006134-3.2891-9.5673e-4 -1.106-0.0019134-2.212-0.0028992-3.3516-6.82e-4 -2.3438 0.0011736-4.6875 0.0053406-7.0312 0.005348-3.6016 5.562e-5 -7.2031-0.0063477-10.805 6.6078e-4 -2.2708 0.0019419-4.5417 0.0039062-6.8125-0.0020242-1.0854-0.0040485-2.1708-0.006134-3.2891 0.0031522-0.99773 0.0063043-1.9955 0.009552-3.0234 7.9559e-4 -0.88301 0.0015912-1.766 0.0024109-2.6758 0.12698-2.0117 0.12698-2.0117 1.127-3.0117 2.3531-0.072717 4.7083-0.083709 7.0625-0.0625 1.2904 0.0090234 2.5807 0.018047 3.9102 0.027344 0.99902 0.011602 1.998 0.023203 3.0273 0.035156l1 5c0.47051-0.34934 0.94102-0.69867 1.4258-1.0586 0.62262-0.45504 1.2452-0.91008 1.8867-1.3789 0.61488-0.45246 1.2298-0.90492 1.8633-1.3711 5.459-3.5653 13.824-3.3114 19.762-0.94141z" fill="#1E3B73"/>
<path transform="translate(535.12 597.87)" d="m0 0c1.2788 0.0025781 2.5575 0.0051562 3.875 0.0078125 1.2788-0.0025781 2.5575-0.0051562 3.875-0.0078125 3.125 0.13281 3.125 0.13281 4.125 1.1328 0.099482 2.1114 0.128 4.2261 0.12939 6.3398 0.0017523 0.66178 0.0035046 1.3236 0.0053101 2.0054 0.0044176 2.1974 0.0014809 4.3948-0.0018921 6.5923 6.7307e-4 1.5208 0.0016431 3.0415 0.0028992 4.5623 0.0014768 3.1912-6.7715e-4 6.3823-0.0053406 9.5735-0.0056973 4.0994-0.0024182 8.1987 0.0035725 12.298 0.003606 3.1414 0.0024669 6.2829-1.2779e-4 9.4243-6.6917e-4 1.5119 1.588e-4 3.0239 0.0024796 4.5358 0.0025271 2.1096-0.0013149 4.2191-0.0069008 6.3286-7.9559e-4 1.2028-0.0015912 2.4056-0.0024109 3.6448-0.12698 2.6951-0.12698 2.6951-1.127 3.6951-2.3531 0.072717-4.7083 0.083709-7.0625 0.0625-1.9355-0.013535-1.9355-0.013535-3.9102-0.027344-0.99902-0.011602-1.998-0.023203-3.0273-0.035156l-1-5c-0.57105 0.43312-1.1421 0.86625-1.7305 1.3125-6.9812 4.7947-12.873 6.1155-21.27 4.6875-6.8371-2.6051-11.329-7.727-14.605-14.145-1.7397-4.2059-1.9323-8.1564-1.8945-12.668 0.0057202-0.79245 0.01144-1.5849 0.017334-2.4014 0.2286-7.5153 2.0047-13.091 7.2327-18.646 6.0026-5.4334 10.731-6.6826 18.832-6.6094 5.4033 0.74103 9.0919 3.3265 13.418 6.4688-0.0052368-0.66121-0.010474-1.3224-0.015869-2.0037-0.020707-2.9779-0.033771-5.9559-0.046631-8.9338-0.0083789-1.0409-0.016758-2.0818-0.025391-3.1543-0.0032227-0.98936-0.0064453-1.9787-0.0097656-2.998-0.0052368-0.91644-0.010474-1.8329-0.015869-2.7771 0.18302-3.4388 0.71397-3.1161 4.2385-3.2659zm-23.125 34.133c-3.0527 3.1964-3.432 5.574-3.4375 9.9375 0.10319 3.851 0.27327 5.7584 2.125 9.1875 3.4955 2.8342 5.7699 3.9393 10.312 3.75 3.4618-1.0097 5.3904-2.4145 8-4.875 2.0891-4.1782 1.4375-9.449 1-14-1.8609-3.4461-3.122-4.5503-6.5625-6.3125-4.7398-1.3369-7.2916-0.10596-11.438 2.3125z" fill="#1E3B73"/>
<path transform="translate(398.05 616.36)" d="m0 0c2.4196 1.4428 4.7019 2.943 6.9453 4.6445l1-5c2.3124-0.026854 4.625-0.046328 6.9375-0.0625 1.2878-0.011602 2.5755-0.023203 3.9023-0.035156 3.1602 0.097656 3.1602 0.097656 4.1602 1.0977 0.09847 1.56 0.12799 3.1244 0.12939 4.6875 0.0031522 0.99773 0.0063043 1.9955 0.009552 3.0234-0.0020242 1.0854-0.0040485 2.1708-0.006134 3.2891 9.5673e-4 1.106 0.0019134 2.212 0.0028992 3.3516 6.82e-4 2.3438-0.0011736 4.6875-0.0053406 7.0312-0.005348 3.6016-5.562e-5 7.2031 0.0063477 10.805-6.6078e-4 2.2708-0.0019419 4.5417-0.0039062 6.8125 0.0020242 1.0854 0.0040485 2.1708 0.006134 3.2891-0.0047282 1.4966-0.0047282 1.4966-0.009552 3.0234-7.9559e-4 0.88301-0.0015912 1.766-0.0024109 2.6758-0.12698 2.0117-0.12698 2.0117-1.127 3.0117-2.3531 0.072717-4.7083 0.083709-7.0625 0.0625-1.2904-0.0090234-2.5807-0.018047-3.9102-0.027344-0.99902-0.011602-1.998-0.023203-3.0273-0.035156l-1-5c-0.57105 0.43312-1.1421 0.86625-1.7305 1.3125-7.0279 4.8268-12.83 5.9485-21.27 4.6875-6.0486-1.7914-10.655-6.8222-14-12-4.6012-11.17-3.5645-20.997 1-32 6.686-9.5948 18.025-13.539 29.055-8.6445zm-13.305 16.707c-2.3449 3.936-2.9673 7.374-2.75 11.938 1.3212 3.5672 2.8004 6.8288 6 9 4.0059 1.0582 6.3139 1.2375 10.25-0.125 3.1837-2.1707 4.3698-3.2711 5.75-6.875 0.6866-5.069 0.55175-8.8556-1.6875-13.5-2.416-2.6119-3.8961-3.624-7.3125-4.5-4.428 0-6.9773 1.0625-10.25 4.0625z" fill="#1E3B73"/>
<path transform="translate(650.5 616.31)" d="m0 0c2.2252 1.502 4.4112 3.0004 6.5 4.6875l1-5c2.3124-0.026854 4.625-0.046328 6.9375-0.0625 1.2878-0.011602 2.5755-0.023203 3.9023-0.035156 3.1602 0.097656 3.1602 0.097656 4.1602 1.0977 0.09847 1.56 0.12799 3.1244 0.12939 4.6875 0.0031522 0.99773 0.0063043 1.9955 0.009552 3.0234-0.0020242 1.0854-0.0040485 2.1708-0.006134 3.2891 9.5673e-4 1.106 0.0019134 2.212 0.0028992 3.3516 6.82e-4 2.3438-0.0011736 4.6875-0.0053406 7.0312-0.005348 3.6016-5.562e-5 7.2031 0.0063477 10.805-6.6078e-4 2.2708-0.0019419 4.5417-0.0039062 6.8125 0.0020242 1.0854 0.0040485 2.1708 0.006134 3.2891-0.0047282 1.4966-0.0047282 1.4966-0.009552 3.0234-7.9559e-4 0.88301-0.0015912 1.766-0.0024109 2.6758-0.12698 2.0117-0.12698 2.0117-1.127 3.0117-2.3531 0.072717-4.7083 0.083709-7.0625 0.0625-1.2904-0.0090234-2.5807-0.018047-3.9102-0.027344-0.99902-0.011602-1.998-0.023203-3.0273-0.035156l-1-5c-0.47051 0.34934-0.94102 0.69867-1.4258 1.0586-0.62262 0.45504-1.2452 0.91008-1.8867 1.3789-0.61488 0.45246-1.2298 0.90492-1.8633 1.3711-5.0099 3.272-11.087 2.7017-16.824 2.1914-6.2541-1.7217-10.469-5.6761-14-11-4.4488-8.3045-4.454-18.934-1.9375-27.938 2.4533-6.0929 6.6087-10.601 12.125-14.062 6.5083-1.7071 12.957-2.0708 19.312 0.3125zm-12.5 15.688c-2.8905 3.0769-3.2412 5.8529-3.4375 9.9375 0.17702 4.7512 0.97724 7.6022 4.4375 11.062 2.6587 1.318 5.0322 1.9257 8 2 4.1558-1.4114 7.0167-3.0334 9-7 1.1142-4.5257 1.3728-7.9406-0.1875-12.375-2.3626-3.4217-4.2509-5.0341-8.125-6.5-3.9049-0.18162-6.298 0.99194-9.6875 2.875z" fill="#1E3B73"/>
<path transform="translate(318.04 601.8)" d="m0 0c1.0681-0.0085501 1.0681-0.0085501 2.1578-0.017273 1.514-0.0094693 3.0281-0.015992 4.5421-0.019836 2.2938-0.0096245 4.5866-0.040593 6.8801-0.072266 15.964-0.11832 15.964-0.11832 22.373 4.8555 4.8365 6.0064 7.3693 11.113 7.0117 18.957-0.89409 6.9316-3.5274 11.501-8.9375 15.875-5.9477 3.1559-10.838 3.9051-17.438 3.75-1.1041-0.013535-1.1041-0.013535-2.2305-0.027344-1.7983-0.023355-3.5965-0.059218-5.3945-0.097656 0.0078552 0.99181 0.0078552 0.99181 0.015869 2.0037 0.020707 2.9779 0.033771 5.9559 0.046631 8.9338 0.0083789 1.0409 0.016758 2.0818 0.025391 3.1543 0.004834 1.484 0.004834 1.484 0.0097656 2.998 0.0078552 1.3747 0.0078552 1.3747 0.015869 2.7771-0.11353 2.1331-0.11353 2.1331-1.1135 3.1331-2.5114 0.09975-4.989 0.13882-7.5 0.125-0.70254 0.0038672-1.4051 0.0077344-2.1289 0.011719-5.2445-0.010105-5.2445-0.010105-6.3711-1.1367-0.099305-1.9889-0.12799-3.9813-0.12939-5.9727-0.0031522-1.278-0.0063043-2.556-0.009552-3.8728 0.0017898-1.4057 0.0038407-2.8114 0.006134-4.217-6.7308e-4 -1.4311-0.0016431-2.8621-0.0028992-4.2932-0.0014768-3.0029 6.7691e-4 -6.0057 0.0053406-9.0085 0.0056973-3.8573 0.0024182-7.7145-0.0035725-11.572-0.0036062-2.9561-0.0024668-5.9123 1.2779e-4 -8.8684 6.6912e-4 -1.4226-1.586e-4 -2.8453-0.0024796-4.2679-0.0025274-1.985 0.0020049-3.97 0.0069008-5.955 7.9559e-4 -1.1317 0.0015912-2.2634 0.0024109-3.4294 0.25304-5.0678 4.0489-3.7211 8.1621-3.7463zm8.9648 13.203v17c7.7168 0.29194 7.7168 0.29194 15-2 2.2374-2.6265 1.9959-4.0783 1.8125-7.5625-0.90506-3.9576-0.90506-3.9576-3.8125-6.4375-2.9761-0.93203-5.6414-1.1082-8.75-1.0625-1.4025 0.020625-2.805 0.04125-4.25 0.0625z" fill="#1E3B73"/>
<path transform="translate(751.12 597.87)" d="m0 0c1.2788 0.0025781 2.5575 0.0051562 3.875 0.0078125 1.2788-0.0025781 2.5575-0.0051562 3.875-0.0078125 3.125 0.13281 3.125 0.13281 4.125 1.1328 0.088552 2.6663 0.11525 5.3065 0.097656 7.9727-0.001415 0.79764-0.0028299 1.5953-0.0042877 2.4171-0.0056154 2.5576-0.01817 5.1152-0.030869 7.6727-0.005013 1.7298-0.0095763 3.4596-0.013672 5.1895-0.011049 4.2494-0.028324 8.4987-0.048828 12.748 2.708-2.6604 5.3521-5.2639 7.6406-8.2969 0.43055-0.5659 0.86109-1.1318 1.3047-1.7148 0.64582-0.86045 0.64582-0.86045 1.3047-1.7383 4.6757-6.1757 4.6757-6.1757 5.75-7.25 2.8627-0.073252 5.7007-0.092382 8.5625-0.0625 0.80631 0.0045117 1.6126 0.0090234 2.4434 0.013672 1.9981 0.011823 3.9961 0.029759 5.9941 0.048828l1 3c-1.5547 2.3125-1.5547 2.3125-3.875 5-0.82113 0.96551-1.6423 1.931-2.4883 2.9258-0.64896 0.75338-0.64896 0.75338-1.311 1.522-2.1732 2.5446-4.2762 5.1442-6.3882 7.7397-1.3125 1.6042-2.625 3.2083-3.9375 4.8125 1.6842 4.038 4.4789 7.1086 7.3125 10.375 1.4267 1.6615 2.8526 3.3234 4.272 4.9912 0.95283 1.0998 1.9272 2.1812 2.9209 3.2441 1.4126 1.5537 1.4126 1.5537 3.4946 4.3896-0.1875 2.375-0.1875 2.375-1 4-14.887 1.5226-14.887 1.5226-19.699-1.9453-2.0143-2.5881-3.6647-5.2148-5.3008-8.0547-1.149-1.4929-2.3142-2.9736-3.5-4.4375-2.5-3.1848-2.5-3.1848-2.5-6.5625h-2c0.0078552 0.90093 0.0078552 0.90093 0.015869 1.8201 0.020711 2.7058 0.033772 5.4116 0.046631 8.1174 0.0083789 0.94553 0.016758 1.8911 0.025391 2.8652 0.004834 1.3487 0.004834 1.3487 0.0097656 2.7246 0.0078552 1.249 0.0078552 1.249 0.015869 2.5232-0.11353 1.9495-0.11353 1.9495-1.1135 2.9495-2.3316 0.099093-4.6663 0.12971-7 0.125-1.2788 0.0025781-2.5575 0.0051562-3.875 0.0078125-3.125-0.13281-3.125-0.13281-4.125-1.1328-0.099482-2.1114-0.128-4.2261-0.12939-6.3398-0.0026285-0.99267-0.0026285-0.99267-0.0053101-2.0054-0.0044176-2.1974-0.0014809-4.3948 0.0018921-6.5923-6.7307e-4 -1.5208-0.0016431-3.0415-0.0028992-4.5623-0.0014768-3.1912 6.7715e-4 -6.3823 0.0053406-9.5735 0.0056973-4.0994 0.0024182-8.1987-0.0035725-12.298-0.003606-3.1414-0.0024669-6.2829 1.2779e-4 -9.4243 6.6917e-4 -1.5119-1.588e-4 -3.0239-0.0024796-4.5358-0.0025271-2.1096 0.0013149-4.2191 0.0069008-6.3286 7.9559e-4 -1.2028 0.0015912-2.4056 0.0024109-3.6448 0.18223-3.8677 0.32198-3.6609 4.252-3.8279z" fill="#1E3B73"/>
<path transform="translate(990,618)" d="m0 0c5.8476 3.8984 9.4622 9.2016 11.617 15.926 1.5755 8.5365 0.64149 16.49-3.6172 24.074-4.1659 5.9385-9.1949 8.6986-16 11-8.1508 1.1994-15.662 0.87388-22.848-3.3945-7.0231-5.2387-10.617-10.973-12.152-19.605-0.97072-7.2189 0.6211-14.432 4.6641-20.496 9.5175-11.546 24.827-14.627 38.336-7.5039zm-24 15c-2.7632 5.0458-2.3913 10.544-1 16 2.5569 3.6849 4.1677 4.7427 8.4375 6.0625 4.4432-0.077951 6.224-1.1898 9.5625-4.0625 2.7525-4.4246 2.6539-8.9439 2-14-1.6503-3.3006-2.942-5.2492-5.9375-7.375-5.5571-1.684-8.6499-0.35116-13.062 3.375z" fill="#1E3B73"/>
<path transform="translate(726.44 616.56)" d="m0 0c5.3301 3.1693 7.9105 7.2815 9.6836 13.145 1.3386 6.4559 1.1413 13.028 1.0847 19.589-0.018501 2.227-0.020508 4.4536-0.020264 6.6807-0.037743 10.876-0.037743 10.876-1.1855 12.023-2.5114 0.09975-4.989 0.13882-7.5 0.125-0.70254 0.0038672-1.4051 0.0077344-2.1289 0.011719-5.2445-0.010105-5.2445-0.010105-6.3711-1.1367-0.097744-2.3057-0.13207-4.6141-0.14062-6.9219-0.018336-1.4323-0.037907-2.8646-0.058594-4.2969-0.02892-2.2626-0.05078-4.5243-0.05127-6.7871-0.0033454-2.1812-0.037962-4.3602-0.077637-6.541-0.014019-1.9621-0.014019-1.9621-0.02832-3.9639-0.80002-4.3376-2.1819-5.8321-5.6436-8.4893-3.8918-0.40966-7.2702-0.19355-11 1-1.1803 3.7685-1.1906 7.4255-1.2812 11.355-0.018409 0.70224-0.036819 1.4045-0.055786 2.128-0.078507 2.9962-0.1467 5.9925-0.21521 8.9889-0.051581 2.1903-0.10885 4.3804-0.1665 6.5706-0.045439 1.9649-0.045439 1.9649-0.091797 3.9695-0.18945 2.9875-0.18945 2.9875-1.1895 3.9875-2.5114 0.09975-4.989 0.13882-7.5 0.125-0.70254 0.0038672-1.4051 0.0077344-2.1289 0.011719-5.2445-0.010105-5.2445-0.010105-6.3711-1.1367-0.09847-1.56-0.12799-3.1244-0.12939-4.6875-0.0031522-0.99773-0.0063043-1.9955-0.009552-3.0234 0.0020242-1.0854 0.0040485-2.1708 0.006134-3.2891-9.5673e-4 -1.106-0.0019134-2.212-0.0028992-3.3516-6.82e-4 -2.3438 0.0011736-4.6875 0.0053406-7.0312 0.005348-3.6016 5.562e-5 -7.2031-0.0063477-10.805 6.6078e-4 -2.2708 0.0019419-4.5417 0.0039062-6.8125-0.0020242-1.0854-0.0040485-2.1708-0.006134-3.2891 0.0031522-0.99773 0.0063043-1.9955 0.009552-3.0234 7.9559e-4 -0.88301 0.0015912-1.766 0.0024109-2.6758 0.12698-2.0117 0.12698-2.0117 1.127-3.0117 2.3316-0.099093 4.6663-0.12971 7-0.125 1.2788-0.0025781 2.5575-0.0051562 3.875-0.0078125 3.125 0.13281 3.125 0.13281 4.125 1.1328 0.040638 1.6662 0.042721 3.3339 0 5h2l0.625-1.8125c4.678-7.4422 16.579-6.8092 23.812-3.625z" fill="#1E3B73"/>
<path transform="translate(810.37 615.86)" d="m0 0c0.70254 0.0038672 1.4051 0.0077344 2.1289 0.011719 0.70254-0.0038672 1.4051-0.0077344 2.1289-0.011719 5.2445 0.010105 5.2445 0.010105 6.3711 1.1367 0.12224 2.2321 0.17982 4.4679 0.21094 6.7031 0.028084 1.3867 0.056748 2.7734 0.085938 4.1602 0.041162 2.1899 0.07804 4.3797 0.10449 6.5698 0.027724 2.1113 0.073609 4.2216 0.12207 6.3325 0.019819 1.2662 0.039639 2.5324 0.060059 3.8369 0.44126 3.5994 1.2447 5.5253 3.4165 8.3975 2.6242 1.1419 5.1595 1.2049 8 1 2.998-1.3395 4.5278-2.0556 6-5 0.14405-2.394 0.23386-4.7639 0.28125-7.1602 0.018409-0.70507 0.036819-1.4101 0.055786-2.1366 0.078785-3.0218 0.14656-6.0438 0.21521-9.0658 0.051613-2.2035 0.1089-4.4068 0.1665-6.6101 0.013575-0.68853 0.027151-1.3771 0.041138-2.0864 0.12728-4.8281 0.12728-4.8281 1.2401-5.9409 2.5114-0.09975 4.989-0.13882 7.5-0.125 0.70254-0.0038672 1.4051-0.0077344 2.1289-0.011719 5.2445 0.010105 5.2445 0.010105 6.3711 1.1367 0.09847 1.56 0.12799 3.1244 0.12939 4.6875 0.0031522 0.99773 0.0063043 1.9955 0.009552 3.0234-0.0020242 1.0854-0.0040485 2.1708-0.006134 3.2891 9.5673e-4 1.106 0.0019134 2.212 0.0028992 3.3516 6.82e-4 2.3438-0.0011736 4.6875-0.0053406 7.0312-0.005348 3.6016-5.562e-5 7.2031 0.0063477 10.805-6.6078e-4 2.2708-0.0019419 4.5417-0.0039062 6.8125 0.0020242 1.0854 0.0040485 2.1708 0.006134 3.2891-0.0047282 1.4966-0.0047282 1.4966-0.009552 3.0234-7.9559e-4 0.88301-0.0015912 1.766-0.0024109 2.6758-0.12698 2.0117-0.12698 2.0117-1.127 3.0117-2.3316 0.099093-4.6663 0.12971-7 0.125-1.2788 0.0025781-2.5575 0.0051562-3.875 0.0078125-3.125-0.13281-3.125-0.13281-4.125-1.1328-0.040638-1.6662-0.042721-3.3339 0-5h-2l-1 3c-5.828 3.7394-11.423 4.9009-18.223 3.5625-6.0407-1.6135-9.3769-4.3577-12.777-9.5625-3.1066-5.9173-3.1267-12.651-3.1328-19.211-9.5673e-4 -0.65361-0.0019134-1.3072-0.0028992-1.9806-6.7487e-4 -1.3663 0.0011305-2.7327 0.0053406-4.099 0.0054107-2.0998 5.12e-6 -4.1995-0.0063477-6.2993 0.0012891-1.3187 0.0025781-2.6374 0.0039062-3.9961 0.0011279-1.207 0.0022559-2.4141 0.003418-3.6577 0.22514-4.7959 2.1897-3.8848 6.5005-3.8931z" fill="#1E3B73"/>
<path transform="translate(563.37 615.86)" d="m0 0c0.70254 0.0038672 1.4051 0.0077344 2.1289 0.011719 0.70254-0.0038672 1.4051-0.0077344 2.1289-0.011719 5.2445 0.010105 5.2445 0.010105 6.3711 1.1367 0.12224 2.2321 0.17982 4.4679 0.21094 6.7031 0.028084 1.3867 0.056748 2.7734 0.085938 4.1602 0.041162 2.1899 0.07804 4.3797 0.10449 6.5698 0.027724 2.1113 0.073609 4.2216 0.12207 6.3325 0.019819 1.2662 0.039639 2.5324 0.060059 3.8369 0.44126 3.5994 1.2447 5.5253 3.4165 8.3975 2.6242 1.1419 5.1595 1.2049 8 1 2.998-1.3395 4.5278-2.0556 6-5 0.14405-2.394 0.23386-4.7639 0.28125-7.1602 0.018409-0.70507 0.036819-1.4101 0.055786-2.1366 0.078785-3.0218 0.14656-6.0438 0.21521-9.0658 0.051613-2.2035 0.1089-4.4068 0.1665-6.6101 0.013575-0.68853 0.027151-1.3771 0.041138-2.0864 0.12728-4.8281 0.12728-4.8281 1.2401-5.9409 2.5114-0.09975 4.989-0.13882 7.5-0.125 0.70254-0.0038672 1.4051-0.0077344 2.1289-0.011719 5.2445 0.010105 5.2445 0.010105 6.3711 1.1367 0.09847 1.56 0.12799 3.1244 0.12939 4.6875 0.0031522 0.99773 0.0063043 1.9955 0.009552 3.0234-0.0020242 1.0854-0.0040485 2.1708-0.006134 3.2891 9.5673e-4 1.106 0.0019134 2.212 0.0028992 3.3516 6.82e-4 2.3438-0.0011736 4.6875-0.0053406 7.0312-0.005348 3.6016-5.562e-5 7.2031 0.0063477 10.805-6.6078e-4 2.2708-0.0019419 4.5417-0.0039062 6.8125 0.0020242 1.0854 0.0040485 2.1708 0.006134 3.2891-0.0047282 1.4966-0.0047282 1.4966-0.009552 3.0234-7.9559e-4 0.88301-0.0015912 1.766-0.0024109 2.6758-0.12698 2.0117-0.12698 2.0117-1.127 3.0117-2.3316 0.099093-4.6663 0.12971-7 0.125-1.2788 0.0025781-2.5575 0.0051562-3.875 0.0078125-3.125-0.13281-3.125-0.13281-4.125-1.1328-0.040638-1.6662-0.042721-3.3339 0-5h-2l-1 3c-5.828 3.7394-11.423 4.9009-18.223 3.5625-6.0407-1.6135-9.3769-4.3577-12.777-9.5625-3.1066-5.9173-3.1267-12.651-3.1328-19.211-9.5673e-4 -0.65361-0.0019134-1.3072-0.0028992-1.9806-6.7487e-4 -1.3663 0.0011305-2.7327 0.0053406-4.099 0.0054107-2.0998 5.12e-6 -4.1995-0.0063477-6.2993 0.0012891-1.3187 0.0025781-2.6374 0.0039062-3.9961 0.0011279-1.207 0.0022559-2.4141 0.003418-3.6577 0.22514-4.7959 2.1897-3.8848 6.5005-3.8931z" fill="#1E3B73"/>
<path transform="translate(473.38 616.06)" d="m0 0c5.5418 4.0904 8.7912 8.2555 10.625 14.938 0.17405 2.8444 0.25756 5.5851 0.23047 8.4258-4.5822e-4 0.7882-9.1644e-4 1.5764-0.0013886 2.3885-0.003006 1.6548-0.010843 3.3096-0.02327 4.9643-0.018378 2.5433-0.020509 5.0863-0.020264 7.6296-0.0049112 1.61-0.010738 3.2201-0.017578 4.8301-0.0011128 0.76347-0.0022256 1.5269-0.0033722 2.3136-0.048506 5.3321-0.048506 5.3321-1.1646 6.4482-2.3316 0.099093-4.6663 0.12971-7 0.125-1.2788 0.0025781-2.5575 0.0051562-3.875 0.0078125-3.125-0.13281-3.125-0.13281-4.125-1.1328-0.12209-2.0627-0.17979-4.1292-0.21094-6.1953-0.028359-1.2736-0.056719-2.5472-0.085938-3.8594-0.041035-2.0273-0.077917-4.0545-0.10449-6.082 0.030672-10.379 0.030672-10.379-3.5986-19.863-3.1949-1.5975-6.5321-1.5082-10-1-2.9686 2.2074-3.8287 3.486-5 7-0.13976 2.2711-0.22544 4.5456-0.28125 6.8203-0.018409 0.65926-0.036819 1.3185-0.055786 1.9978-0.078614 2.8178-0.14663 5.6358-0.21521 8.4539-0.051601 2.0579-0.10888 4.1156-0.1665 6.1733-0.045439 1.8488-0.045439 1.8488-0.091797 3.7349-0.18945 2.8198-0.18945 2.8198-1.1895 3.8198-2.3316 0.099093-4.6663 0.12971-7 0.125-1.2788 0.0025781-2.5575 0.0051562-3.875 0.0078125-3.125-0.13281-3.125-0.13281-4.125-1.1328-0.09847-1.56-0.12799-3.1244-0.12939-4.6875-0.0031522-0.99773-0.0063043-1.9955-0.009552-3.0234 0.0020242-1.0854 0.0040485-2.1708 0.006134-3.2891-9.5673e-4 -1.106-0.0019134-2.212-0.0028992-3.3516-6.82e-4 -2.3438 0.0011736-4.6875 0.0053406-7.0312 0.005348-3.6016 5.562e-5 -7.2031-0.0063477-10.805 6.6078e-4 -2.2708 0.0019419-4.5417 0.0039062-6.8125-0.0020242-1.0854-0.0040485-2.1708-0.006134-3.2891 0.0031522-0.99773 0.0063043-1.9955 0.009552-3.0234 7.9559e-4 -0.88301 0.0015912-1.766 0.0024109-2.6758 0.12698-2.0117 0.12698-2.0117 1.127-3.0117 2.3531-0.072717 4.7083-0.083709 7.0625-0.0625 1.2904 0.0090234 2.5807 0.018047 3.9102 0.027344 0.99902 0.011602 1.998 0.023203 3.0273 0.035156l1 5c0.47051-0.34934 0.94102-0.69867 1.4258-1.0586 0.62262-0.45504 1.2452-0.91008 1.8867-1.3789 0.61488-0.45246 1.2298-0.90492 1.8633-1.3711 5.6661-3.7006 13.987-3.0845 20.199-1.1289z" fill="#1E3B73"/>
<path transform="translate(929.5,616.5)" d="m0 0c5.2639 3.2181 10.337 8.6713 12.5 14.5-0.375 2.25-0.375 2.25-1 4-2.6053 0.10793-5.2061 0.18725-7.8125 0.25-0.73799 0.033516-1.476 0.067031-2.2363 0.10156-2.1582 0.039062-2.1582 0.039062-5.9512-0.35156-1.7656-1.9531-1.7656-1.9531-3-4-2.6482-1.0441-5.1695-1.2568-8-1-2.4801 1.8442-3.6314 3.2628-5 6-0.14852 1.9336-0.22131 3.8734-0.25 5.8125-0.025781 1.0377-0.051562 2.0754-0.078125 3.1445 0.37111 3.4416 1.2832 5.2784 3.3281 8.043 2.8886 1.4443 4.7965 1.3769 8 1 0.7193-0.82629 1.4386-1.6526 2.1797-2.5039 3.7914-3.3555 6.2673-3.0912 11.133-2.8086 0.74057 0.022559 1.4811 0.045117 2.2441 0.068359 1.8153 0.058559 3.6296 0.14823 5.4434 0.24414 0.83988 2.3622 1.1735 3.5537 0.25 5.9297-4.1298 6.4269-8.7698 11.737-16.25 14.07-10.383 0.88636-17.809 0.42015-26.188-6.0625-5.3227-4.9609-7.3964-10.162-8.1875-17.34-0.30274-8.7133 0.4956-16.225 6.4336-22.918 8.5319-8.0283 21.251-11.139 32.441-6.1797z" fill="#1E3B73"/>
<path transform="translate(628,463)" d="m0 0c0.99 0.33 1.98 0.66 3 1 1.7385 5.2156 1.2695 10.728 1.3125 16.188 0.043506 1.8108 0.043506 1.8108 0.087891 3.6582 0.051361 7.226-0.44902 12.04-4.4004 18.154-3.9614 3.8377-7.9767 4.1262-13.319 4.1135-1.0608-7.553e-5 -2.1216-1.5106e-4 -3.2145-2.2888e-4 -1.708-0.0077419-1.708-0.0077419-3.4505-0.01564-1.1707-0.001415-2.3415-0.0028299-3.5477-0.0042877-3.7393-0.0055976-7.4786-0.01815-11.218-0.030869-2.5352-0.0050153-5.0703-0.0095782-7.6055-0.013672-6.2149-0.011026-12.43-0.027762-18.645-0.048828v-4c0.62342-0.31638 1.2468-0.63277 1.8892-0.95874 17.79-9.0621 33.954-18.983 49.958-30.905 0.72461-0.53963 1.4492-1.0793 2.1958-1.6353 1.6549-1.2699 3.2492-2.6182 4.8276-3.9819 1.0538-0.75217 1.0538-0.75217 2.1289-1.5195z" fill="#233F7C"/>
<path transform="translate(855,153)" d="m0 0c1.6754 0.28605 3.3439 0.61781 5 1-0.1631 6.524-3.6862 9.5824-8 14-0.5348 0.55913-1.0696 1.1183-1.6206 1.6943-1.8239 1.9044-3.6617 3.7944-5.5044 5.6807-0.59772 0.61939-1.1954 1.2388-1.8113 1.877-3.1453 3.1675-5.6511 5.4992-10.064 6.748-2-2-2-2-2.3601-4.3594 0.46896-3.4388 1.6409-4.4997 4.1218-6.8906 0.78955-0.77344 1.5791-1.5469 2.3926-2.3438 0.83596-0.79406 1.6719-1.5881 2.5332-2.4062 0.81662-0.79406 1.6332-1.5881 2.4746-2.4062 1.5757-1.5311 3.1561-3.0573 4.7417-4.5781 2.399-2.3068 4.7545-4.6508 7.0962-7.0156l1-1z" fill="#244079"/>
<path transform="translate(831,435)" d="m0 0c3.7195 0.41535 5.7824 1.2741 8.5 3.8125 0.67418 0.62133 1.3484 1.2427 2.043 1.8828 0.81082 0.76055 1.6216 1.5211 2.457 2.3047 1.0988 0.99895 2.1992 1.9962 3.3008 2.9922 1.171 1.0646 2.3416 2.1297 3.5117 3.1953 0.56332 0.51087 1.1266 1.0217 1.707 1.5481 7.3799 6.7889 7.3799 6.7889 7.668 11.014l-0.1875 2.25c-1.7617 0.6875-1.7617 0.6875-4 1-1.8945-1.1875-1.8945-1.1875-3.8125-3-0.70125-0.65227-1.4025-1.3045-2.125-1.9766-2.389-2.3437-4.7292-4.7301-7.0547-7.1367-3.3661-3.1631-7.1262-5.8484-10.848-8.5781-2.1602-2.3086-2.1602-2.3086-2.5391-5.5234 0.37891-2.7852 0.37891-2.7852 1.3789-3.7852z" fill="#2D457D"/>
<path transform="translate(488.79 304.89)" d="m0 0c1.6874 1.5917e-4 3.3749 0.0058562 5.0623 0.015869 1.3296 0.0021224 1.3296 0.0021224 2.6861 0.0042877 2.8429 0.0056164 5.6858 0.018172 8.5287 0.030869 1.9225 0.0050129 3.8451 0.0095762 5.7676 0.013672 4.7233 0.011051 9.4466 0.028326 14.17 0.048828l1 5c-3.8725 2.5816-7.0831 2.2701-11.57 2.2305-1.2552-6.8733e-4 -1.2552-6.8733e-4 -2.5359-0.0013886-1.7669-0.0030191-3.5337-0.010895-5.3006-0.02327-2.7148-0.018287-5.4292-0.020509-8.144-0.020264-1.7148-0.0049141-3.4297-0.010742-5.1445-0.017578-1.2249-0.0016692-1.2249-0.0016692-2.4746-0.0033722-5.714-0.048539-5.714-0.048539-6.83-1.1646-0.125-2.5-0.125-2.5 0-5 1-1 1-1 4.7854-1.1135z" fill="#314C86"/>
<path transform="translate(706,488)" d="m0 0c3.875 0.875 3.875 0.875 5 2 0.08862 2.8116 0.11522 5.5986 0.097656 8.4102-0.001415 0.84203-0.0028299 1.6841-0.0042877 2.5516-0.0056159 2.7003-0.018171 5.4005-0.030869 8.1007-0.005013 1.8262-0.0095762 3.6523-0.013672 5.4785-0.01105 4.4864-0.028325 8.9727-0.048828 13.459-2.375 0.625-2.375 0.625-5 1-2.5409-2.5409-2.2472-4.1724-2.2779-7.6384 0.0040485-0.76772 0.0080969-1.5354 0.012268-2.3264-0.0019134-0.78911-0.0038269-1.5782-0.0057983-2.3913-0.001362-1.6703 0.0023354-3.3406 0.010681-5.0108 0.010685-2.557 1.128e-4 -5.1132-0.012695-7.6702 0.0013219-1.6217 0.0038848-3.2435 0.0078125-4.8652-0.0060727-1.1485-0.0060727-1.1485-0.012268-2.3203 0.033495-3.7939 0.12185-5.5433 2.2779-8.7774z" fill="#203A74"/>
<path transform="translate(880,652)" d="m0 0c3.5875 2.6517 4.8224 4.0957 5.6875 8.5-0.73557 3.7447-1.7107 5.3866-4.8398 7.6133-3.571 1.7138-5.9115 1.5115-9.8477 0.88672-3-2-4.6133-3.3992-5.4766-6.9727-0.14844-2.0898-0.14844-2.0898 0.47656-6.0273 4.2894-4.5213 8.0156-5.6756 14-4z" fill="#1E3B73"/>
<path transform="translate(704,491)" d="m0 0h2v35h5l-1 3c-4.875-0.875-4.875-0.875-6-2-0.088552-2.6663-0.11525-5.3065-0.097656-7.9727 0.001415-0.79764 0.0028299-1.5953 0.0042877-2.4171 0.0056154-2.5576 0.01817-5.1152 0.030869-7.6727 0.005013-1.7298 0.0095763-3.4596 0.013672-5.1895 0.011049-4.2494 0.028324-8.4987 0.048828-12.748z" fill="#395084"/>
<path transform="translate(726.95 505.8)" d="m0 0c2.0182 0.065104 4.0365 0.13021 6.0547 0.19531 0.625 2.375 0.625 2.375 1 5-2 2-2 2-3.9453 2.1953-2.0182-0.065104-4.0365-0.13021-6.0547-0.19531-0.625-2.375-0.625-2.375-1-5 2-2 2-2 3.9453-2.1953z" fill="#3F5A8C"/>
<path transform="translate(531,410)" d="M0 0 C3.11396946 0.21475651 4.06926877 1.06926877 6.3125 3.3125 C8 6 8 6 7.9375 8.25 C7 10 7 10 4 11 C-0.90322581 6.70967742 -0.90322581 6.70967742 -1.375 3.25 C-1 1 -1 1 0 0 Z " fill="#2E4C80"/>
<path transform="translate(835.81 460.19)" d="m0 0 2.1875 0.8125c-0.35995 2.6636-0.71161 4.5818-2.25 6.8125-2.3301 1.5811-3.995 1.4109-6.75 1.1875-0.8125-1.6875-0.8125-1.6875-1-4 3.8364-5.0776 3.8364-5.0776 7.8125-4.8125z" fill="#334D81"/>
<path transform="translate(487,498)" d="m0 0-1 5h-4v2l-8-1v-4c1.4154-0.33873 2.8324-0.67075 4.25-1 1.1834-0.27844 1.1834-0.27844 2.3906-0.5625 2.3594-0.4375 2.3594-0.4375 6.3594-0.4375z" fill="#70B256"/>
<path transform="translate(542,426)" d="m0 0c2.7543 0.28493 4.0853 1.0646 6.3125 2.75 1.6875 2.25 1.6875 2.25 1.4375 5l-0.75 2.25c-2.6636-0.35995-4.5818-0.71161-6.8125-2.25-1.5973-2.3538-1.4806-3.9652-1.1875-6.75l1-1z" fill="#284982"/>
<path transform="translate(501,321)" d="m0 0c3.6923 0.69231 3.6923 0.69231 5 2 0.14115 2.6706 0.042471 5.3243 0 8l-5 1c-2-3-2-3-1.6875-6.625 0.6875-3.375 0.6875-3.375 1.6875-4.375z" fill="#2E4983"/>
<path transform="translate(646,499)" d="m0 0c6.625-0.25 6.625-0.25 10 2l-1 5c-5.4154 0.36923-5.4154 0.36923-8.375-1.5l-1.625-1.5 1-4z" fill="#29477D"/>
<path transform="translate(522,394)" d="m0 0c2.3186 0.30915 3.8111 0.87183 5.75 2.1875 1.7927 2.5994 1.4551 4.7359 1.25 7.8125-0.99 0.33-1.98 0.66-3 1-4.9032-4.2903-4.9032-4.2903-5.375-7.75 0.375-2.25 0.375-2.25 1.375-3.25z" fill="#284880"/>
<path transform="translate(745.95 502.8)" d="m0 0c2.0182 0.065104 4.0365 0.13021 6.0547 0.19531 0.625 1.875 0.625 1.875 1 4-3.0062 3.0062-5.8238 2.5959-10 3-0.625-2.375-0.625-2.375-1-5 2-2 2-2 3.9453-2.1953z" fill="#324D80"/>
<path transform="translate(805,482)" d="m0 0 1 5c-2.3597 2.0975-3.5462 2.9691-6.75 3.1875l-2.25-0.1875-1-5c3.0719-2.7306 4.9041-3.3413 9-3z" fill="#284681"/>
<path transform="translate(686.07 506.9)" d="m0 0c1.2356 0.017402 1.2356 0.017402 2.4961 0.035156 0.82629 0.0090234 1.6526 0.018047 2.5039 0.027344 0.63809 0.011602 1.2762 0.023203 1.9336 0.035156 0.38219 1.6561 0.71395 3.3246 1 5-1 1-1 1-3.0664 1.0977-0.82371-0.011602-1.6474-0.023203-2.4961-0.035156-0.82629-0.0090234-1.6526-0.018047-2.5039-0.027344-0.63809-0.011602-1.2762-0.023203-1.9336-0.035156-0.38219-1.6561-0.71395-3.3246-1-5 1-1 1-1 3.0664-1.0977z" fill="#2A4C85"/>
<path transform="translate(880,205)" d="m0 0c2.7046 0.27046 3.8127 0.81266 5.75 2.75 1.4608 2.6294 1.4969 4.2874 1.25 7.25-0.99 0.33-1.98 0.66-3 1-4.9032-4.2903-4.9032-4.2903-5.375-7.75 0.375-2.25 0.375-2.25 1.375-3.25z" fill="#28477E"/>
<path transform="translate(869,189)" d="m0 0c3.114 0.21476 4.0693 1.0693 6.3125 3.3125 1.6875 2.6875 1.6875 2.6875 1.4375 5l-0.75 1.6875c-2.6636-0.35995-4.5818-0.71161-6.8125-2.25-1.5973-2.3538-1.4806-3.9652-1.1875-6.75l1-1z" fill="#29477D"/>
<path transform="translate(770,498)" d="m0 0c0.625 1.875 0.625 1.875 1 4-3.0062 3.0062-5.8238 2.5959-10 3-0.6875-1.8125-0.6875-1.8125-1-4 2.298-4.0216 5.8162-3.2368 10-3z" fill="#294880"/>
<path transform="translate(533,193)" d="m0 0 5 1c-0.49798 3.7349-0.87492 5.8124-3 9l-5-1c0.49798-3.7349 0.87492-5.8124 3-9z" fill="#2C4981"/>
<path transform="translate(761,113)" d="m0 0c6.625-0.25 6.625-0.25 10 2l-1 5c-7.75-0.75-7.75-0.75-10-3 0.375-2.125 0.375-2.125 1-4z" fill="#2A4583"/>
<path transform="translate(749.09 107.77)" d="m0 0c1.9102 0.23047 1.9102 0.23047 3.9102 2.2305l-1 4h-9c-0.38219-1.6561-0.71395-3.3246-1-5 1.8949-1.8949 4.5714-1.1802 7.0898-1.2305z" fill="#304C86"/>
<path transform="translate(870,420)" d="m0 0c1.9375 0.3125 1.9375 0.3125 4 1l1 3c-1.9375 3.1875-1.9375 3.1875-4 6l-5-1c0.53069-3.821 1.497-6.0617 4-9z" fill="#395589"/>
<path transform="translate(686.07 104.9)" d="m0 0c1.2356 0.017402 1.2356 0.017402 2.4961 0.035156 0.82629 0.0090234 1.6526 0.018047 2.5039 0.027344 0.63809 0.011602 1.2762 0.023203 1.9336 0.035156l1 4c-3.6442 2.4295-5.7124 2.1618-10 2-0.38219-1.6561-0.71395-3.3246-1-5 1-1 1-1 3.0664-1.0977z" fill="#2D4783"/>
<path transform="translate(665,504)" d="m0 0c6.0547-0.19531 6.0547-0.19531 8 0l2 2c-0.375 2.125-0.375 2.125-1 4-6.0547 0.19531-6.0547 0.19531-8 0l-2-2c0.375-2.125 0.375-2.125 1-4z" fill="#28447C"/>
<path transform="translate(819.69 472.38)" d="m0 0 2.3125 0.625c-0.1875 2.3125-0.1875 2.3125-1 5-2.375 1.875-2.375 1.875-5 3-0.99-0.33-1.98-0.66-3-1 0.3125-2.875 0.3125-2.875 1-6 3-2 3-2 5.6875-1.625z" fill="#1F3F7D"/>
<path transform="translate(508,359)" d="m0 0c2.4375 0.375 2.4375 0.375 5 1 1.3544 2.7088 1.065 5.0093 1 8l-5 1c-1.8369-3.7819-2.1584-5.9457-1-10z" fill="#294580"/>
<path transform="translate(906,334)" d="m0 0c2.125 0.375 2.125 0.375 4 1 0.19531 6.0547 0.19531 6.0547 0 8l-2 2c-2.125-0.375-2.125-0.375-4-1-0.19531-6.0547-0.19531-6.0547 0-8l2-2z" fill="#2E4A82"/>
<path transform="translate(797,127)" d="m0 0c3.821 0.53069 6.0617 1.497 9 4l-1 4c-6.75-0.75-6.75-0.75-9-3 0.375-2.625 0.375-2.625 1-5z" fill="#294885"/>
<path transform="translate(667.95 106.8)" d="m0 0c2.0182 0.065104 4.0365 0.13021 6.0547 0.19531 0.625 1.875 0.625 1.875 1 4-2 2-2 2-3.9453 2.1953-2.0182-0.065104-4.0365-0.13021-6.0547-0.19531-0.625-1.875-0.625-1.875-1-4 2-2 2-2 3.9453-2.1953z" fill="#27437E"/>
<path transform="translate(504,340)" d="m0 0c3.6923 0.69231 3.6923 0.69231 5 2 0.14115 2.6706 0.042471 5.3243 0 8l-4 1c-2.4377-3.6565-2.2394-5.69-2-10l1-1z" fill="#304B84"/>
<path transform="translate(505,263)" d="m0 0 4 2c0.25 5.625 0.25 5.625-2 9l-4-1c-1.0114-2.7307-1.0456-3.86-0.125-6.6875 1.125-2.3125 1.125-2.3125 2.125-3.3125z" fill="#294885"/>
<path transform="translate(509,245)" d="m0 0c1.9375 0.3125 1.9375 0.3125 4 1 1.392 4.1759-0.17677 6.1347-2 10l-4-1c-0.25-6.625-0.25-6.625 2-10z" fill="#28447C"/>
<path transform="translate(830,148)" d="m0 0c5.75 1.75 5.75 1.75 8 4-0.375 2.625-0.375 2.625-1 5-3.3746-0.54724-5.0824-1.0549-8-3-0.25-2.5625-0.25-2.5625 0-5l1-1z" fill="#24417B"/>
<path transform="translate(502,282)" d="m0 0 4 1v10l-4 1c-1-1-1-1-1.1328-3.25 0.0025781-0.9075 0.0051562-1.815 0.0078125-2.75-0.0025781-0.9075-0.0051562-1.815-0.0078125-2.75 0.13281-2.25 0.13281-2.25 1.1328-3.25z" fill="#284481"/>
<path transform="translate(524,210)" d="m0 0c2.625 0.375 2.625 0.375 5 1-1.75 6.75-1.75 6.75-4 9-2.125-0.375-2.125-0.375-4-1 0.75-6.75 0.75-6.75 3-9z" fill="#2E4C80"/>
<path transform="translate(858,174)" d="m0 0c2.9152 1.074 4.7781 1.7781 7 4 0.125 2.625 0.125 2.625 0 5-1.75 0.75-1.75 0.75-4 1-2.25-1.625-2.25-1.625-4-4-0.3125-2.6875-0.3125-2.6875 0-5l1-1z" fill="#26427C"/>
<path transform="translate(651.62 110.88)" d="m0 0 3.375 0.125c0.625 1.875 0.625 1.875 1 4-2.7622 2.7622-5.2071 2.5786-9 3-0.625-2.375-0.625-2.375-1-5 2-2 2-2 5.625-2.125z" fill="#24417B"/>
<path transform="translate(725.85 104.9)" d="m0 0c2.0508 0.032552 4.1016 0.065104 6.1523 0.097656 0.38219 1.6561 0.71395 3.3246 1 5-1 1-1 1-2.8477 1.0977-2.0508-0.032552-4.1016-0.065104-6.1523-0.097656-0.38219-1.6561-0.71395-3.3246-1-5 1-1 1-1 2.8477-1.0977z" fill="#243F7E"/>
<path transform="translate(788,491)" d="m0 0 1 4c-2.3597 2.0975-3.5462 2.9691-6.75 3.1875l-2.25-0.1875c-0.6875-1.8125-0.6875-1.8125-1-4 2.2411-3.6913 4.9988-3.2667 9-3z" fill="#2D4A83"/>
<path transform="translate(514,377)" d="m0 0c2.4375 0.375 2.4375 0.375 5 1 1.3544 2.7088 1.065 5.0093 1 8l-4 1c-3.0769-4.3077-3.0769-4.3077-2.6875-7.8125l0.6875-2.1875z" fill="#29477C"/>
<path transform="translate(858,435)" d="m0 0c2.625 0.375 2.625 0.375 5 1-0.54724 3.3746-1.0549 5.0824-3 8l-5-1c0.75-5.75 0.75-5.75 3-8z" fill="#28457B"/>
<path transform="translate(516,227)" d="m0 0 4 1-1 8-5 1c-1.0635-3.3839-1.2144-4.5805 0.4375-7.8125l1.5625-2.1875z" fill="#244379"/>
<path transform="translate(780,119)" d="m0 0c3.3437 0.55729 6.0331 1.3517 9 3l-1 4c-3.375 0.125-3.375 0.125-7 0l-2-2c0.375-2.625 0.375-2.625 1-5z" fill="#264480"/>
<path transform="translate(814,137)" d="m0 0c3.7755 1.0907 6.4704 1.9083 9 5l-1 3c-3.1462 0.26219-4.6184 0.24754-7.3125-1.5l-1.6875-1.5 1-5z" fill="#23407E"/>
<path transform="translate(881,404)" d="m0 0 4 2c-1.75 5.75-1.75 5.75-4 8-2.125-0.375-2.125-0.375-4-1 0.61538-5.5385 0.61538-5.5385 2.5625-7.875l1.4375-1.125z" fill="#2C487C"/>
<path transform="translate(544,178)" d="m0 0 5 1c-0.54724 3.3746-1.0549 5.0824-3 8l-5-1c0.54724-3.3746 1.0549-5.0824 3-8z" fill="#28417F"/>
<path transform="translate(889,388)" d="m0 0 4 1c-0.75 6.75-0.75 6.75-3 9-2.125-0.375-2.125-0.375-4-1 0.49798-3.7349 0.87492-5.8124 3-9z" fill="#25447B"/>
<path transform="translate(902,353)" d="m0 0c2.125 0.375 2.125 0.375 4 1 0.25 5.625 0.25 5.625-2 9l-4-1c-0.125-3.375-0.125-3.375 0-7l2-2z" fill="#24417C"/>
<path transform="translate(896,371)" d="m0 0 4 1c0.25 5.625 0.25 5.625-2 9l-4-1c-0.25-5.625-0.25-5.625 2-9z" fill="#203E79"/>
<path transform="translate(889,222)" d="m0 0c1.9375 0.75 1.9375 0.75 4 2 0.75 2.125 0.75 2.125 1 4-1.6561 0.38219-3.3246 0.71395-5 1-1-1-1-1-1.125-3.5 0.125-2.5 0.125-2.5 1.125-3.5z" fill="#304D87"/>
<path transform="translate(817,472)" d="m0 0 5 1-1 5c-0.99 0.33-1.98 0.66-3 1v-4h-2l1-3z" fill="#324D84"/>
<path transform="translate(501,321)" d="m0 0c3.875 0.875 3.875 0.875 5 2 0.14115 2.6706 0.042471 5.3243 0 8l-5 1 1-2h2v-7h-3v-2z" fill="#4A6193"/>
<path transform="translate(869,189)" d="m0 0c2 0.3125 2 0.3125 4 1l1 2c-1.3125 1.5-1.3125 1.5-3 3h-3c-0.042721-1.6661-0.040638-3.3338 0-5l1-1z" fill="#385184"/>
<path transform="translate(870,424)" d="m0 0h4c-0.6875 2.4375-0.6875 2.4375-2 5-2.625 0.8125-2.625 0.8125-5 1l3-6z" fill="#24407A"/>
<path transform="translate(844,256)" d="m0 0 5 1-1 5-5-2 1-4z" fill="#6DB356"/>
<path transform="translate(652,499)" d="m0 0 4 2-1 5h-3v-7z" fill="#334F82"/>
<path transform="translate(797,127)" d="m0 0 4 1-2 5c-0.99-0.33-1.98-0.66-3-1l1-5z" fill="#39558C"/>
<path transform="translate(763.56 112.94)" d="m0 0 2.4375 0.0625-1 4-4 1c-0.5625-1.9375-0.5625-1.9375-1-4 1-1 1-1 3.5625-1.0625z" fill="#344D85"/>
<path transform="translate(504,340)" d="m0 0h3l-2 7h-2c-0.042544-1.9995-0.040808-4.0004 0-6l1-1z" fill="#22407D"/>
<path transform="translate(548,155)" d="m0 0c0.99 0.33 1.98 0.66 3 1l-1 5-3-3 1-3z" fill="#324E88"/>
<path transform="translate(908,322)" d="m0 0 4 1-1 3-4-1 1-3z" fill="#37578C"/>
</svg>
