<?xml version="1.0" encoding="UTF-8"?><svg version="1.1" xmlns="http://www.w3.org/2000/svg" width="1408" height="768"><path d="M0 0 C464.64 0 929.28 0 1408 0 C1408 253.44 1408 506.88 1408 768 C943.36 768 478.72 768 0 768 C0 514.56 0 261.12 0 0 Z " fill="#FEFEFE" transform="translate(0,0)"/><path d="M0 0 C1.65 0.33 3.3 0.66 5 1 C5 14.2 5 27.4 5 41 C10.94 41.33 16.88 41.66 23 42 C27.33802584 42.58867794 31.53377876 43.21558774 35.8125 44.0625 C36.90780029 44.27729004 38.00310059 44.49208008 39.1315918 44.71337891 C59.93121793 49.06415958 78.41456742 57.80482496 95 71 C95.87011719 71.67546875 96.74023438 72.3509375 97.63671875 73.046875 C112.49746926 85.32848699 122.40750243 104.54800084 127 123 C127.27070312 124.03350586 127.27070312 124.03350586 127.546875 125.08789062 C129.93447753 134.33985041 131.39814005 143.3687787 131.5625 152.9375 C131.58924805 153.7838501 131.61599609 154.6302002 131.64355469 155.50219727 C131.62960712 157.78750568 131.55867328 159.78339343 131 162 C128.49609375 164.34375 128.49609375 164.34375 126 166 C125.33323122 169.54250051 125.33323122 169.54250051 126 173 C126.50781006 173.47203857 127.01562012 173.94407715 127.53881836 174.43041992 C129 176 129 176 129.18188477 178.12231445 C128.39823869 184.40348089 126.99082392 190.2026614 124.9375 196.1875 C124.62731934 197.09806152 124.31713867 198.00862305 123.99755859 198.94677734 C119.44145673 211.8780999 113.31756272 222.8254708 104 233 C103.22914063 233.85207031 102.45828125 234.70414063 101.6640625 235.58203125 C86.53271269 251.52136576 63.79940062 263.53977768 42 267 C36.61413188 266.75518781 32.95684749 263.36429608 28.8125 260.25 C27.19673522 259.05973206 25.58084631 257.8696326 23.96484375 256.6796875 C23.14097168 256.06834961 22.31709961 255.45701172 21.46826172 254.82714844 C17.62421218 251.9815632 13.75164252 249.17594707 9.875 246.375 C9.13999268 245.84326172 8.40498535 245.31152344 7.64770508 244.76367188 C2.47314853 241.03183979 -2.74460137 237.36704214 -8 233.75 C-8.67691895 233.28384277 -9.35383789 232.81768555 -10.05126953 232.33740234 C-15.97806572 228.23973797 -15.97806572 228.23973797 -23 228 C-27.09620821 231.56075616 -29.9715601 235.64260194 -32.9375 240.125 C-38.85736401 248.90974758 -45.08831395 257.45826494 -51.48657227 265.90063477 C-53.02006935 267.95441673 -53.02006935 267.95441673 -54.21459961 270.09741211 C-55.74584699 272.6753102 -56.98768367 274.72258639 -59.98046875 275.54272461 C-62.29953055 275.68944595 -64.49613179 275.61418861 -66.8125 275.4375 C-67.60076172 275.40591797 -68.38902344 275.37433594 -69.20117188 275.34179688 C-71.13572925 275.25972474 -73.06835663 275.13417148 -75 275 C-74.96334229 275.59949463 -74.92668457 276.19898926 -74.88891602 276.81665039 C-74.7423269 279.56473244 -74.65205142 282.31199209 -74.5625 285.0625 C-74.50384766 286.00544922 -74.44519531 286.94839844 -74.38476562 287.91992188 C-74.21514994 294.87416493 -74.21514994 294.87416493 -76.47509766 298.1159668 C-78.23987735 299.86932925 -80.0795857 301.42152124 -82 303 C-83.10596594 304.20884289 -84.19221346 305.43628081 -85.25 306.6875 C-95.76828229 318.8492639 -106.7502395 330.5612506 -119 341 C-120.1599029 342.01051624 -121.318646 343.02236447 -122.4765625 344.03515625 C-143.03728569 362 -143.03728569 362 -146 362 C-146.09152636 322.22780397 -146.16202389 282.45562165 -146.20426132 242.68334138 C-146.20926423 237.98941491 -146.21444151 233.29548865 -146.21972656 228.6015625 C-146.2207758 227.66707394 -146.22182505 226.73258538 -146.22290608 225.76977898 C-146.24031823 210.63242845 -146.27186038 195.49513859 -146.30861118 180.35782407 C-146.34599808 164.82916848 -146.36823108 149.30054469 -146.37635398 133.77184594 C-146.38184643 124.18736447 -146.39920288 114.6030545 -146.43166587 105.01862581 C-146.45278596 98.4490193 -146.45920573 91.87950162 -146.45400551 85.30986361 C-146.45143981 81.51770364 -146.45541294 77.72584363 -146.4768219 73.9337368 C-146.49985655 69.82370001 -146.49196428 65.71430404 -146.48101807 61.60421753 C-146.49266943 60.40382776 -146.5043208 59.20343799 -146.51632524 57.96667278 C-146.47104007 51.6991791 -146.33672938 47.69815097 -142 43 C-138.58732877 40.72488585 -137.40558425 40.75221511 -133.40022278 40.75949097 C-132.23494553 40.75674164 -131.06966827 40.75399231 -129.86907959 40.75115967 C-127.94965546 40.7619455 -127.94965546 40.7619455 -125.99145508 40.77294922 C-124.63142404 40.77351332 -123.27139238 40.7731968 -121.91136169 40.77206421 C-118.21738906 40.77148964 -114.52354593 40.78326074 -110.82960343 40.79721212 C-106.9698796 40.80970216 -103.11015291 40.81088862 -99.25041199 40.81326294 C-91.94062757 40.81948279 -84.63090287 40.83590043 -77.32114476 40.85596192 C-68.99959742 40.87830521 -60.67804724 40.88931039 -52.35647738 40.89935279 C-35.23761703 40.92026623 -18.11881482 40.95545201 -1 41 C-1.00523682 39.79351807 -1.01047363 38.58703613 -1.01586914 37.34399414 C-1.03391611 32.88436622 -1.04543089 28.42474154 -1.05493164 23.96508789 C-1.05997256 22.03181415 -1.06680519 20.09854424 -1.07543945 18.1652832 C-1.08751565 15.39273128 -1.09323057 12.62022959 -1.09765625 9.84765625 C-1.10281754 8.97786636 -1.10797882 8.10807648 -1.11329651 7.21192932 C-1.11349185 5.14094186 -1.06208168 3.07005676 -1 1 C-0.67 0.67 -0.34 0.34 0 0 Z " fill="#1E3C7A" transform="translate(706,165)"/><path d="M0 0 C-0.64581621 10.20016572 -1.79831172 20.31324086 -3.046875 30.45410156 C-3.37181445 33.09907002 -3.69011417 35.74477822 -4.0078125 38.390625 C-5.14964525 47.79111541 -6.42773089 57.15392778 -7.96237183 66.49893188 C-9.18796213 73.97345385 -10.11813378 81.47819985 -11 89 C-14.82227071 87.39914309 -17.42864315 84.93771778 -20.4375 82.125 C-23.86159734 78.93425561 -27.30948154 75.88007793 -31 73 C-34.89252812 74.55701125 -37.06142977 77.01434106 -39.8125 80.125 C-40.25335937 80.62 -40.69421875 81.115 -41.1484375 81.625 C-42.43902332 83.07737938 -43.71971919 84.53852859 -45 86 C-45.61230469 86.69867188 -46.22460938 87.39734375 -46.85546875 88.1171875 C-47.95738507 89.37876391 -49.05763072 90.64180139 -50.15625 91.90625 C-53.25638586 95.42674326 -56.43269553 98.87801558 -59.59375 102.34375 C-61.58648953 104.54352741 -63.5533814 106.75955218 -65.5 109 C-69.12944941 113.17729083 -72.8647902 117.25537239 -76.59375 121.34375 C-78.58648953 123.54352741 -80.5533814 125.75955218 -82.5 128 C-86.13065708 132.17868079 -89.86718576 136.25816304 -93.59765625 140.34765625 C-95.56941844 142.52460996 -97.51365337 144.71838674 -99.4375 146.9375 C-102.86700919 150.88589474 -106.40876823 154.72857458 -109.95068359 158.57568359 C-113.08531289 161.98616889 -116.15733845 165.44167816 -119.19140625 168.94140625 C-121.4301125 171.4895665 -123.71410212 173.99410593 -126 176.5 C-129.45328153 180.28662998 -132.86099051 184.1047632 -136.22265625 187.97265625 C-138.29359487 190.33489173 -140.39512848 192.66795853 -142.5 195 C-146.37699282 199.29594745 -150.20502898 203.63151246 -154 208 C-156.98584678 207.39972294 -159.00975046 206.50849464 -161.4765625 204.734375 C-162.13785156 204.26322266 -162.79914063 203.79207031 -163.48046875 203.30664062 C-164.18816406 202.79294922 -164.89585937 202.27925781 -165.625 201.75 C-166.37136719 201.21568359 -167.11773438 200.68136719 -167.88671875 200.13085938 C-170.26268261 198.42722586 -172.63195692 196.71462242 -175 195 C-176.5077257 193.91133811 -178.01553676 192.82279443 -179.5234375 191.734375 C-181.77198008 190.11040032 -184.01989547 188.48558746 -186.26611328 186.85839844 C-192.00347472 182.70533534 -197.78067317 178.61187945 -203.5769043 174.54150391 C-207.38057868 171.86538694 -211.16381139 169.16419462 -214.92578125 166.4296875 C-215.74175781 165.83671875 -216.55773437 165.24375 -217.3984375 164.6328125 C-218.97198531 163.48702526 -220.54369475 162.33870776 -222.11328125 161.1875 C-222.82484375 160.66929687 -223.53640625 160.15109375 -224.26953125 159.6171875 C-224.89448486 159.15940918 -225.51943848 158.70163086 -226.16333008 158.22998047 C-228.04438565 156.97027583 -229.95563366 155.96780421 -232 155 C-232.99966797 156.28970703 -232.99966797 156.28970703 -234.01953125 157.60546875 C-242.55185499 168.56711295 -251.37185808 179.22268691 -260.734375 189.48828125 C-261.97427908 190.86286457 -263.20784954 192.24367946 -264.40917969 193.65209961 C-269.40207585 199.48440954 -274.75193892 204.93808627 -280.17773438 210.36303711 C-281.73860327 211.92608734 -283.29127888 213.49697365 -284.84375 215.06835938 C-291.23842923 221.49835889 -297.89233307 227.35264091 -305 233 C-306.8150803 234.55950185 -308.62816326 236.12133812 -310.4375 237.6875 C-341.9211895 263.82260904 -378.64098045 282.45478868 -420.125 282.375 C-420.89470123 282.3764502 -421.66440247 282.37790039 -422.45742798 282.37939453 C-434.04935626 282.37698039 -444.89263876 281.59025818 -456 278 C-452.40595328 275.8634886 -448.91367126 275.39170784 -444.8125 274.75 C-414.5269593 269.39616452 -386.31695507 252.20157338 -362 234 C-361.45537109 233.59426758 -360.91074219 233.18853516 -360.34960938 232.77050781 C-343.28697022 220.00894911 -327.70869125 205.77593621 -312.625 190.75 C-311.7805835 189.91025635 -310.93616699 189.0705127 -310.06616211 188.20532227 C-305.17029927 183.29684998 -300.50544266 178.26706074 -296 173 C-294.95470286 171.80850972 -293.90785358 170.61837916 -292.859375 169.4296875 C-286.17992826 161.8108938 -279.73159378 154.06732518 -273.56201172 146.03027344 C-271.81186025 143.7554595 -270.04809897 141.49147596 -268.28515625 139.2265625 C-258.67867216 126.81725648 -249.69804036 114.06029669 -241 101 C-235.59203048 103.95560064 -230.65159869 107.2921954 -225.6875 110.9375 C-224.08730763 112.10295802 -222.48704525 113.26831992 -220.88671875 114.43359375 C-220.07509277 115.02640137 -219.2634668 115.61920898 -218.42724609 116.22998047 C-214.62809954 119.00043033 -210.81369841 121.74963617 -207 124.5 C-205.49991836 125.58322028 -203.99991855 126.6665539 -202.5 127.75 C-201.7575 128.28625 -201.015 128.8225 -200.25 129.375 C-193.5 134.25 -193.5 134.25 -191.24609375 135.87792969 C-189.75925215 136.95168791 -188.27227492 138.02525836 -186.78515625 139.09863281 C-182.83264966 141.95187021 -178.88315266 144.80916524 -174.9375 147.671875 C-174.11121094 148.27064453 -173.28492188 148.86941406 -172.43359375 149.48632812 C-170.84158547 150.64008693 -169.25040513 151.79498926 -167.66015625 152.95117188 C-166.94730469 153.46744141 -166.23445313 153.98371094 -165.5 154.515625 C-164.8709375 154.97227539 -164.241875 155.42892578 -163.59375 155.89941406 C-161.98206325 157.06740722 -161.98206325 157.06740722 -160 158 C-159.72760498 157.40541992 -159.45520996 156.81083984 -159.17456055 156.19824219 C-158.02970512 154.05559444 -156.87355302 152.57993363 -155.20703125 150.828125 C-154.66272461 150.25030273 -154.11841797 149.67248047 -153.55761719 149.07714844 C-152.98172852 148.47418945 -152.40583984 147.87123047 -151.8125 147.25 C-150.62547304 145.99036407 -149.43926755 144.7299535 -148.25390625 143.46875 C-147.4033667 142.56576172 -147.4033667 142.56576172 -146.53564453 141.64453125 C-144.18058196 139.12248014 -141.91940506 136.52492704 -139.6640625 133.9140625 C-136.16707067 129.891701 -132.57140635 125.95620434 -129 122 C-127.49971321 120.33359149 -125.99971128 118.66692647 -124.5 117 C-120 112 -120 112 -115.5 107 C-114.75363281 106.16984375 -114.00726562 105.3396875 -113.23828125 104.484375 C-111.78081189 102.86666032 -110.32003641 101.25191619 -108.85546875 99.640625 C-104.43875294 94.77030053 -100.13126662 89.82259052 -95.875 84.8125 C-92.25350514 80.55384838 -88.58970601 76.44616774 -84.56640625 72.55859375 C-82.20989363 70.21383431 -80.06499601 67.69916957 -77.8984375 65.1796875 C-75.00459408 61.85712654 -72.0058061 58.63040905 -69.015625 55.39453125 C-67.03716879 53.04415595 -65.50128584 50.67475926 -64 48 C-66.39487151 46.39438174 -68.79085413 44.79046593 -71.1875 43.1875 C-72.19780273 42.50977539 -72.19780273 42.50977539 -73.22851562 41.81835938 C-76.11422939 39.88985798 -78.96906421 38.01759094 -81.98828125 36.30078125 C-82.98408203 35.65689453 -82.98408203 35.65689453 -84 35 C-84 34.34 -84 33.68 -84 33 C-82.684552 32.4738208 -82.684552 32.4738208 -81.3425293 31.93701172 C-80.75347809 31.70139023 -80.16442688 31.46576874 -79.55752563 31.2230072 C-78.20732904 30.68293064 -76.85712955 30.14286135 -75.50692749 29.60279846 C-71.65551188 28.06227002 -67.80415073 26.52160565 -63.95288086 24.98071289 C-56.53278082 22.01208406 -49.11240417 19.04416159 -41.69004822 16.08117676 C-38.56382889 14.83314478 -35.43786646 13.58447006 -32.31192017 12.33575439 C-30.8310704 11.74441098 -29.35009622 11.15337898 -27.86898804 10.56268311 C-25.77821601 9.72880532 -23.68782627 8.89397927 -21.59765625 8.05859375 C-20.94562729 7.79824341 -20.29359833 7.53789307 -19.62181091 7.26965332 C-14.469682 5.20531702 -9.35564094 3.0570056 -4.25561523 0.86743164 C-2 0 -2 0 0 0 Z " fill="#60AD46" transform="translate(927,301)"/><path d="M0 0 C11.6325 -0.061875 23.265 -0.12375 35.25 -0.1875 C38.8790332 -0.21481201 42.50806641 -0.24212402 46.24707031 -0.27026367 C100.65529915 -0.51057328 100.65529915 -0.51057328 119.75 17.25 C133.89820959 32.39690673 134.72065256 50.14154453 134.17919922 69.76855469 C133.38288555 84.12823821 127.30509319 96.845168 116.91015625 106.70703125 C111.71632418 110.79935262 106.08273715 113.42902019 100 116 C98.81083984 116.50660156 98.81083984 116.50660156 97.59765625 117.0234375 C85.2819481 121.65616198 71.73563331 121.28079614 58.7890625 121.1953125 C57.27433419 121.19236219 55.75960382 121.19032786 54.24487305 121.18920898 C48.70488373 121.17883605 43.16493842 121.15091435 37.625 121.125 C19.000625 121.063125 19.000625 121.063125 0 121 C0 81.07 0 41.14 0 0 Z " fill="#FEFEFE" transform="translate(631,262)"/><path d="M0 0 C0.12426004 4.71385233 0.21464511 9.4267369 0.2746582 14.1418457 C0.29969279 15.74325177 0.33373162 17.34454482 0.37719727 18.94555664 C0.43834544 21.25695768 0.46631814 23.56683966 0.48828125 25.87890625 C0.51408768 26.58648575 0.5398941 27.29406525 0.56648254 28.02308655 C0.56918671 32.89342494 -0.66682791 35.74606299 -3.43513489 39.5589447 C-7.01626194 42.85673827 -10.91506411 43.24866637 -15.61645508 43.22705078 C-16.71721878 43.22689972 -17.81798248 43.22674866 -18.95210266 43.22659302 C-20.71797981 43.21110916 -20.71797981 43.21110916 -22.51953125 43.1953125 C-23.73323898 43.1924826 -24.94694672 43.18965271 -26.19743347 43.18673706 C-30.06922311 43.17555308 -33.94078041 43.1504513 -37.8125 43.125 C-40.43944978 43.11496792 -43.06640319 43.10584246 -45.69335938 43.09765625 C-52.12898536 43.07561954 -58.56447608 43.04215941 -65 43 C-65 42.34 -65 41.68 -65 41 C-63.84886719 40.48953125 -62.69773437 39.9790625 -61.51171875 39.453125 C-39.93966081 29.68823144 -21.29969545 16.42854438 -2.9609375 1.53125 C-1 0 -1 0 0 0 Z " fill="#233F7C" transform="translate(631,539)"/><path d="M0 0 C13.53 0 27.06 0 41 0 C41.495 1.98 41.495 1.98 42 4 C39.3597846 6.6402154 37.4450706 6.23802723 33.85289001 6.25224304 C33.01327225 6.24505753 32.17365448 6.23787201 31.30859375 6.23046875 C30.44814957 6.23001053 29.58770538 6.22955231 28.70118713 6.2290802 C26.88126243 6.22605705 25.06134033 6.21816888 23.24145508 6.20581055 C20.44538276 6.18755148 17.64964134 6.18530085 14.85351562 6.18554688 C13.08853878 6.1806319 11.3235642 6.17480367 9.55859375 6.16796875 C8.71695175 6.16685593 7.87530975 6.1657431 7.00816345 6.16459656 C1.11604705 6.11604705 1.11604705 6.11604705 0 5 C0 3.35 0 1.7 0 0 Z " fill="#314C86" transform="translate(484,382)"/><path d="M0 0 C1.65 0.33 3.3 0.66 5 1 C5 13.87 5 26.74 5 40 C2.525 40.495 2.525 40.495 0 41 C-1.86962718 39.13037282 -1.12886303 36.45336439 -1.13894653 33.96618652 C-1.1369223 33.12140747 -1.13489807 32.27662842 -1.1328125 31.40625 C-1.13376923 30.54439087 -1.13472595 29.68253174 -1.13571167 28.79455566 C-1.1363935 26.96866788 -1.13453904 25.14277769 -1.13037109 23.31689453 C-1.12502286 20.51198922 -1.13031599 17.70724405 -1.13671875 14.90234375 C-1.13605797 13.13281214 -1.13477681 11.36328064 -1.1328125 9.59375 C-1.13483673 8.74897095 -1.13686096 7.90419189 -1.13894653 7.03381348 C-1.11495031 1.11495031 -1.11495031 1.11495031 0 0 Z " fill="#203A74" transform="translate(706,565)"/><path d="M0 0 C4.90496311 0.40529483 7.44359131 2.82994504 10.7734375 6.171875 C11.30143951 6.69130676 11.82944153 7.21073853 12.3734436 7.74591064 C13.48271777 8.84372992 14.58683 9.94678661 15.68603516 11.0546875 C17.37321175 12.74820503 19.08534266 14.41329946 20.80078125 16.078125 C21.8766189 17.14941835 22.95089384 18.22228383 24.0234375 19.296875 C24.53788422 19.79290222 25.05233093 20.28892944 25.58236694 20.79998779 C26.98974609 22.24511719 26.98974609 22.24511719 29 25 C28.81103516 27.85644531 28.81103516 27.85644531 28 30 C23.30662257 29.14287163 20.92495805 26.21592072 17.75 22.875 C16.59177864 21.68431272 15.43162959 20.49549744 14.26953125 19.30859375 C13.70959473 18.73608887 13.1496582 18.16358398 12.57275391 17.57373047 C10.60326433 15.60301799 8.54889945 13.75465546 6.4375 11.9375 C5.8290625 11.41285156 5.220625 10.88820313 4.59375 10.34765625 C3.21518245 9.18195575 1.82718627 8.02742276 0.4375 6.875 C-1 5 -1 5 -0.75 2.25 C-0.5025 1.5075 -0.255 0.765 0 0 Z " fill="#2C457D" transform="translate(831,512)"/><path d="M0 0 C0.53915039 0.27287842 1.07830078 0.54575684 1.63378906 0.8269043 C1.23239151 5.74584885 -1.21415797 8.27410184 -4.57324219 11.6003418 C-5.09504562 12.12834381 -5.61684906 12.65634583 -6.15446472 13.2003479 C-7.25657737 14.30954481 -8.36382672 15.41365851 -9.47583008 16.51293945 C-11.17847162 18.20166694 -12.85568947 19.91308441 -14.53222656 21.62768555 C-15.60694684 22.70335657 -16.68307223 23.77762595 -17.76074219 24.8503418 C-18.26193069 25.36478851 -18.7631192 25.87923523 -19.27949524 26.40927124 C-20.72485352 27.81665039 -20.72485352 27.81665039 -23.36621094 29.8269043 C-25.71655273 29.63793945 -25.71655273 29.63793945 -27.36621094 28.8269043 C-27.36621094 24.36200254 -26.63392356 23.60985869 -23.65716553 20.53642273 C-23.12286926 20.00708633 -22.588573 19.47774994 -22.03808594 18.93237305 C-21.21996429 18.10495354 -21.21996429 18.10495354 -20.38531494 17.26081848 C-19.23015514 16.09855872 -18.06983048 14.94141284 -16.90478516 13.7890625 C-15.12088163 12.01903865 -13.36228131 10.22633629 -11.60449219 8.43041992 C-10.47964186 7.30461857 -9.35338549 6.18021994 -8.22558594 5.05737305 C-7.6993866 4.5179155 -7.17318726 3.97845795 -6.63104248 3.4226532 C-2.90263584 -0.21233686 -2.90263584 -0.21233686 0 0 Z " fill="#244079" transform="translate(858.3662109375,230.173095703125)"/><path d="M0 0 C0.33 0 0.66 0 1 0 C1 12.21 1 24.42 1 37 C2.32 37 3.64 37 5 37 C5 24.79 5 12.58 5 0 C5.33 0 5.66 0 6 0 C6 12.87 6 25.74 6 39 C3.525 39.495 3.525 39.495 1 40 C0 39 0 39 -0.11352539 35.30639648 C-0.11336624 33.66128708 -0.10766988 32.01617269 -0.09765625 30.37109375 C-0.0962413 29.50686295 -0.09482635 28.64263214 -0.09336853 27.75221252 C-0.08775239 24.98060708 -0.07519719 22.2090812 -0.0625 19.4375 C-0.05748708 17.5631522 -0.05292381 15.68880315 -0.04882812 13.81445312 C-0.03777772 9.20960456 -0.0205023 4.60481579 0 0 Z " fill="#3A5185" transform="translate(705,566)"/><path d="M0 0 C2.05078125 0.03255208 4.1015625 0.06510417 6.15234375 0.09765625 C6.77734375 1.97265625 6.77734375 1.97265625 7.15234375 4.09765625 C5.15234375 6.09765625 5.15234375 6.09765625 2.98828125 6.29296875 C1.77011719 6.25816406 1.77011719 6.25816406 0.52734375 6.22265625 C-0.28992188 6.20460938 -1.1071875 6.1865625 -1.94921875 6.16796875 C-2.57570313 6.14476562 -3.2021875 6.1215625 -3.84765625 6.09765625 C-2.77957394 0.14691194 -2.77957394 0.14691194 0 0 Z " fill="#3F5B8D" transform="translate(726.84765625,582.90234375)"/><path d="M0 0 C3.69230769 0.69230769 3.69230769 0.69230769 5 2 C5.14115161 4.67058851 5.04247107 7.32432238 5 10 C3.125 10.625 3.125 10.625 1 11 C-1 9 -1 9 -1.23046875 7.08984375 C-1.11111111 1.11111111 -1.11111111 1.11111111 0 0 Z " fill="#4F6696" transform="translate(501,398)"/><path d="M0 0 C1.75 0.125 1.75 0.125 4 1 C6.25 4.0625 6.25 4.0625 8 7 C7.34 8.32 6.68 9.64 6 11 C2.18712958 9.55373881 0.67292823 7.69805188 -1 4 C-0.6875 1.6875 -0.6875 1.6875 0 0 Z " fill="#2F4C81" transform="translate(531,487)"/><path d="M0 0 C0.8353125 0.37125 0.8353125 0.37125 1.6875 0.75 C1.35535849 3.84998746 0.6329988 4.8045012 -1.625 7.0625 C-4.3125 8.75 -4.3125 8.75 -6.625 8.5 C-7.181875 8.2525 -7.73875 8.005 -8.3125 7.75 C-7.98035849 4.65001254 -7.2579988 3.6954988 -5 1.4375 C-2.3125 -0.25 -2.3125 -0.25 0 0 Z " fill="#334D81" transform="translate(836.3125,537.25)"/><path d="M0 0 C7.42857143 -0.28571429 7.42857143 -0.28571429 11 2 C10.67 3.32 10.34 4.64 10 6 C7.03 5.67 4.06 5.34 1 5 C0.67 3.35 0.34 1.7 0 0 Z " fill="#344E89" transform="translate(742,185)"/><path d="M0 0 C0.33 1.32 0.66 2.64 1 4 C-2.50776784 5.60355101 -5.14354879 6.22036864 -9 6 C-9.33 4.68 -9.66 3.36 -10 2 C-6.3558226 -0.4294516 -4.28758728 -0.16179575 0 0 Z " fill="#334E80" transform="translate(752,580)"/><path d="M0 0 C3.09998746 0.33214151 4.0545012 1.0545012 6.3125 3.3125 C8 6 8 6 7.75 8.3125 C7.5025 8.869375 7.255 9.42625 7 10 C3.90001254 9.66785849 2.9454988 8.9454988 0.6875 6.6875 C-1 4 -1 4 -0.75 1.6875 C-0.5025 1.130625 -0.255 0.57375 0 0 Z " fill="#264681" transform="translate(542,503)"/><path d="M0 0 C1.32 0.33 2.64 0.66 4 1 C3.42647107 4.87132028 1.51295648 7.08172796 -1 10 C-2.32 9.67 -3.64 9.34 -5 9 C-4.42647107 5.12867972 -2.51295648 2.91827204 0 0 Z " fill="#3A568A" transform="translate(871,497)"/><path d="M0 0 C1.9375 0.375 1.9375 0.375 4 1 C5.4783226 3.95664519 5.06032783 6.74229737 5 10 C3.68 10.33 2.36 10.66 1 11 C-0.62950412 6.87831311 -1.26264601 4.29299643 0 0 Z " fill="#314C85" transform="translate(504,417)"/><path d="M0 0 C1.32 0 2.64 0 4 0 C4.28571429 7.42857143 4.28571429 7.42857143 2 11 C0.68 10.67 -0.64 10.34 -2 10 C-1.85950482 8.52031676 -1.71245174 7.04125484 -1.5625 5.5625 C-1.48128906 4.73878906 -1.40007813 3.91507812 -1.31640625 3.06640625 C-1 1 -1 1 0 0 Z " fill="#3A568C" transform="translate(906,411)"/><path d="M0 0 C3.3 0 6.6 0 10 0 C10.33 1.32 10.66 2.64 11 4 C10 5 10 5 7.93359375 5.09765625 C7.10988281 5.08605469 6.28617188 5.07445312 5.4375 5.0625 C4.61121094 5.05347656 3.78492188 5.04445313 2.93359375 5.03515625 C2.29550781 5.02355469 1.65742187 5.01195312 1 5 C0.67 3.35 0.34 1.7 0 0 Z " fill="#2B4C86" transform="translate(683,584)"/><path d="M0 0 C3.94727588 -0.17942163 6.5980513 -0.09350689 10 2 C10 3.32 10 4.64 10 6 C3.6 6.36923077 3.6 6.36923077 0.5625 4.5 C0.046875 4.005 -0.46875 3.51 -1 3 C-0.67 2.01 -0.34 1.02 0 0 Z " fill="#29477D" transform="translate(646,576)"/><path d="M0 0 C1.32 0.33 2.64 0.66 4 1 C3.125 8.75 3.125 8.75 2 11 C0.68 10.67 -0.64 10.34 -2 10 C-2.25 3.375 -2.25 3.375 0 0 Z " fill="#294886" transform="translate(505,340)"/><path d="M0 0 C1.32 0.66 2.64 1.32 4 2 C2.80100302 5.0831351 1.52299523 8.06279492 0 11 C-1.32 10.67 -2.64 10.34 -4 10 C-3.5205537 5.78087253 -2.83374881 3.20336822 0 0 Z " fill="#2F4C81" transform="translate(525,286)"/><path d="M0 0 C1.32 0 2.64 0 4 0 C3.5205537 4.21912747 2.83374881 6.79663178 0 10 C-1.32 9.67 -2.64 9.34 -4 9 C-3.47679633 5.23293356 -2.72611199 2.72611199 0 0 Z " fill="#2C4981" transform="translate(534,270)"/><path d="M0 0 C0 1.32 0 2.64 0 4 C-3.82989106 5.80230168 -6.78121808 6.19622241 -11 6 C-10.75 4.125 -10.75 4.125 -10 2 C-6.82026536 -0.35535899 -3.84875379 -0.17494335 0 0 Z " fill="#2A4880" transform="translate(771,575)"/><path d="M0 0 C0 1.32 0 2.64 0 4 C-3.72965139 6.03435531 -5.66905042 7 -10 7 C-9.6875 4.625 -9.6875 4.625 -9 2 C-5.5647952 -0.29013653 -4.014669 -0.17842973 0 0 Z " fill="#2D4B84" transform="translate(789,568)"/><path d="M0 0 C1.8125 0.1875 1.8125 0.1875 4 1 C5.8125 3.3125 5.8125 3.3125 7 6 C6.6875 8.3125 6.6875 8.3125 6 10 C4.1875 9.8125 4.1875 9.8125 2 9 C0.1875 6.6875 0.1875 6.6875 -1 4 C-0.6875 1.6875 -0.6875 1.6875 0 0 Z " fill="#284880" transform="translate(522,471)"/><path d="M0 0 C2.0625 0.4375 2.0625 0.4375 4 1 C4.125 8.75 4.125 8.75 3 11 C1.68 11 0.36 11 -1 11 C-1.02688151 9.35425434 -1.04634123 7.70838587 -1.0625 6.0625 C-1.07410156 5.14597656 -1.08570313 4.22945313 -1.09765625 3.28515625 C-1 1 -1 1 0 0 Z " fill="#213E7D" transform="translate(502,359)"/><path d="M0 0 C1.75 0.125 1.75 0.125 4 1 C6.3125 3.875 6.3125 3.875 8 7 C7.67 7.99 7.34 8.98 7 10 C3.90001254 9.66785849 2.9454988 8.9454988 0.6875 6.6875 C-1 4 -1 4 -0.75 1.6875 C-0.5025 1.130625 -0.255 0.57375 0 0 Z " fill="#29477D" transform="translate(869,266)"/><path d="M0 0 C3.491933 0.64665426 6.15389899 1.86542424 9 4 C9 5.32 9 6.64 9 8 C4.78087253 7.5205537 2.20336822 6.83374881 -1 4 C-0.67 2.68 -0.34 1.36 0 0 Z " fill="#294885" transform="translate(797,204)"/><path d="M0 0 C3.05448544 0.17967561 4.62545344 0.61085596 7.1875 2.1875 C7.1875 3.5075 7.1875 4.8275 7.1875 6.1875 C5.72802295 6.12743922 4.26970728 6.0386311 2.8125 5.9375 C2.00039063 5.89109375 1.18828125 5.8446875 0.3515625 5.796875 C-1.8125 5.1875 -1.8125 5.1875 -3.1015625 3.140625 C-3.33617187 2.49609375 -3.57078125 1.8515625 -3.8125 1.1875 C-2.8125 0.1875 -2.8125 0.1875 0 0 Z " fill="#2A4583" transform="translate(763.8125,189.8125)"/><path d="M0 0 C0.33 1.32 0.66 2.64 1 4 C-3.12168689 5.62950412 -5.70700357 6.26264601 -10 5 C-9.6875 3.0625 -9.6875 3.0625 -9 1 C-5.8035914 -0.06546953 -3.34252724 -0.07427838 0 0 Z " fill="#27437E" transform="translate(674,184)"/><path d="M0 0 C0.556875 0.226875 1.11375 0.45375 1.6875 0.6875 C1.5 2.5 1.5 2.5 0.6875 4.6875 C-1.625 6.5 -1.625 6.5 -4.3125 7.6875 C-6.625 7.375 -6.625 7.375 -8.3125 6.6875 C-8.125 4.875 -8.125 4.875 -7.3125 2.6875 C-3.3125 -0.44763514 -3.3125 -0.44763514 0 0 Z " fill="#284681" transform="translate(804.3125,559.3125)"/><path d="M0 0 C-1.45124634 3.82601307 -3.35774704 5.22329124 -7 7 C-7.99 7 -8.98 7 -10 7 C-9.67226629 3.96846314 -9.35865103 2.38426897 -7.25 0.125 C-4.40525065 -1.29737468 -2.98383376 -0.91172698 0 0 Z " fill="#334E85" transform="translate(823,550)"/><path d="M0 0 C1.32 0.33 2.64 0.66 4 1 C3.35455571 4.48539917 1.89865603 7.02819057 0 10 C-1.32 9.67 -2.64 9.34 -4 9 C-3.46930939 5.17902761 -2.50298434 2.93828597 0 0 Z " fill="#2C487D" transform="translate(881,481)"/><path d="M0 0 C1.65 0.33 3.3 0.66 5 1 C4.01 3.97 3.02 6.94 2 10 C0.68 10 -0.64 10 -2 10 C-1.125 2.25 -1.125 2.25 0 0 Z " fill="#28457D" transform="translate(509,322)"/><path d="M0 0 C1.65 0 3.3 0 5 0 C7.09350689 3.4019487 7.17942163 6.05272412 7 10 C5.1875 9.875 5.1875 9.875 3 9 C1.04679411 5.79116175 0 3.7794561 0 0 Z " fill="#2A477D" transform="translate(513,454)"/><path d="M0 0 C1.32 0 2.64 0 4 0 C5.83691257 3.78187881 6.15837626 5.94568308 5 10 C3.68 9.67 2.36 9.34 1 9 C0.63877119 7.68942607 0.28619689 6.37646376 -0.0625 5.0625 C-0.35833984 3.96615234 -0.35833984 3.96615234 -0.66015625 2.84765625 C-0.77230469 2.23792969 -0.88445312 1.62820313 -1 1 C-0.67 0.67 -0.34 0.34 0 0 Z " fill="#2A4680" transform="translate(508,436)"/><path d="M0 0 C3.87132028 0.57352893 6.08172796 2.48704352 9 5 C8.67 5.99 8.34 6.98 8 8 C4.17902761 7.46930939 1.93828597 6.50298434 -1 4 C-0.67 2.68 -0.34 1.36 0 0 Z " fill="#23417E" transform="translate(814,214)"/><path d="M0 0 C2.97 0.99 5.94 1.98 9 3 C9 4.32 9 5.64 9 7 C1.25 6.125 1.25 6.125 -1 5 C-0.67 3.35 -0.34 1.7 0 0 Z " fill="#213F7E" transform="translate(780,196)"/><path d="M0 0 C1.37478516 0.01740234 1.37478516 0.01740234 2.77734375 0.03515625 C3.69644531 0.04417969 4.61554687 0.05320313 5.5625 0.0625 C6.27277344 0.07410156 6.98304688 0.08570313 7.71484375 0.09765625 C7.33984375 2.03515625 7.33984375 2.03515625 6.71484375 4.09765625 C3.75819856 5.57597885 0.97254638 5.15798408 -2.28515625 5.09765625 C-2.84765625 3.16015625 -2.84765625 3.16015625 -3.28515625 1.09765625 C-2.28515625 0.09765625 -2.28515625 0.09765625 0 0 Z " fill="#2D4784" transform="translate(686.28515625,181.90234375)"/><path d="M0 0 C7.42857143 -0.28571429 7.42857143 -0.28571429 11 2 C11 2.99 11 3.98 11 5 C9.54176788 5.0270043 8.08339325 5.04639787 6.625 5.0625 C5.81289063 5.07410156 5.00078125 5.08570313 4.1640625 5.09765625 C2 5 2 5 0 4 C0 2.68 0 1.36 0 0 Z " fill="#28447D" transform="translate(664,581)"/><path d="M0 0 C1.32 0 2.64 0 4 0 C3.25 6.625 3.25 6.625 1 10 C-0.32 9.67 -1.64 9.34 -3 9 C-2.44271087 5.65626525 -1.64826111 2.96687001 0 0 Z " fill="#244379" transform="translate(516,304)"/><path d="M0 0 C0.99 0 1.98 0 3 0 C6.22265625 5.17578125 6.22265625 5.17578125 7 7 C6.67 7.99 6.34 8.98 6 10 C4.1875 9.8125 4.1875 9.8125 2 9 C0.1875 6.6875 0.1875 6.6875 -1 4 C-0.6875 1.6875 -0.6875 1.6875 0 0 Z " fill="#28477E" transform="translate(880,282)"/><path d="M0 0 C0 1.32 0 2.64 0 4 C-3.50776784 5.60355101 -6.14354879 6.22036864 -10 6 C-9.67 4.35 -9.34 2.7 -9 1 C-5.8035914 -0.06546953 -3.34252724 -0.07427838 0 0 Z " fill="#25417C" transform="translate(656,188)"/><path d="M0 0 C-0.53069061 3.82097239 -1.49701566 6.06171403 -4 9 C-5.32 8.67 -6.64 8.34 -8 8 C-7.63487253 5.2980567 -7.30130763 3.41609148 -5.6875 1.1875 C-4 0 -4 0 0 0 Z " fill="#28467B" transform="translate(863,512)"/><path d="M0 0 C1.32 0 2.64 0 4 0 C3.49287967 3.71888239 2.88391785 6.73454239 1 10 C-0.32 9.67 -1.64 9.34 -3 9 C-2.44271087 5.65626525 -1.64826111 2.96687001 0 0 Z " fill="#26457B" transform="translate(889,465)"/><path d="M0 0 C1.32 0 2.64 0 4 0 C3.125 7.75 3.125 7.75 2 10 C0.68 9.67 -0.64 9.34 -2 9 C-1.125 1.125 -1.125 1.125 0 0 Z " fill="#25427D" transform="translate(902,430)"/><path d="M0 0 C2.84574968 1.27568089 5.18089981 2.41496289 7 5 C6.6875 7.6875 6.6875 7.6875 6 10 C2.66282451 8.6190998 0.77698964 7.1798762 -1 4 C-0.6875 1.75 -0.6875 1.75 0 0 Z " fill="#284680" transform="translate(858,251)"/><path d="M0 0 C1.32 0 2.64 0 4 0 C3.46930939 3.82097239 2.50298434 6.06171403 0 9 C-1.32 8.67 -2.64 8.34 -4 8 C-3.40339753 4.65902615 -2.36924875 2.45699871 0 0 Z " fill="#263F7E" transform="translate(545,255)"/><path d="M0 0 C5.99725275 2.10714286 5.99725275 2.10714286 8 5 C7.6875 7.1875 7.6875 7.1875 7 9 C1.00274725 6.89285714 1.00274725 6.89285714 -1 4 C-0.6875 1.8125 -0.6875 1.8125 0 0 Z " fill="#24427B" transform="translate(830,225)"/><path d="M0 0 C-0.5625 1.9375 -0.5625 1.9375 -2 4 C-7.33800002 5.46533334 -10.93929518 4.75575473 -16 3 C-10.92216681 0.07048085 -5.75857366 -0.1371089 0 0 Z " fill="#71B358" transform="translate(487,576)"/><path d="M0 0 C1.32 0 2.64 0 4 0 C3.125 7.75 3.125 7.75 2 10 C0.68 9.67 -0.64 9.34 -2 9 C-1.125 2.25 -1.125 2.25 0 0 Z " fill="#213E79" transform="translate(896,448)"/><path d="M0 0 C3.5625 0.125 3.5625 0.125 5.5625 1.125 C5.5625 2.445 5.5625 3.765 5.5625 5.125 C2.5925 5.125 -0.3775 5.125 -3.4375 5.125 C-3.7675 3.805 -4.0975 2.485 -4.4375 1.125 C-3.4375 0.125 -3.4375 0.125 0 0 Z " fill="#24407E" transform="translate(727.4375,181.875)"/><path d="M0 0 C1.875 0.1875 1.875 0.1875 4 1 C5.25 3.5625 5.25 3.5625 6 6 C4.35 6.33 2.7 6.66 1 7 C0.67 4.69 0.34 2.38 0 0 Z " fill="#304E87" transform="translate(888,299)"/><path d="M0 0 C0.99 0.66 1.98 1.32 3 2 C2.67 3.32 2.34 4.64 2 6 C0.0625 5.625 0.0625 5.625 -2 5 C-2.33 4.34 -2.66 3.68 -3 3 C-2.01 2.01 -1.02 1.02 0 0 Z " fill="#2B4E86" transform="translate(547,507)"/><path d="M0 0 C0.99 0.33 1.98 0.66 3 1 C3 2.32 3 3.64 3 5 C1.35 5.33 -0.3 5.66 -2 6 C-1.125 1.125 -1.125 1.125 0 0 Z " fill="#1E3F7D" transform="translate(815,551)"/><path d="M0 0 C1.32 0 2.64 0 4 0 C3.625 2.9375 3.625 2.9375 3 6 C2.01 6.495 2.01 6.495 1 7 C0.67 4.69 0.34 2.38 0 0 Z " fill="#233F79" transform="translate(905,412)"/><path d="M0 0 C1.32 0.66 2.64 1.32 4 2 C4 3.32 4 4.64 4 6 C2.68 6 1.36 6 0 6 C-0.38218767 4.34385343 -0.71395102 2.67542976 -1 1 C-0.67 0.67 -0.34 0.34 0 0 Z " fill="#243F78" transform="translate(858,251)"/><path d="M0 0 C1.65 0.33 3.3 0.66 5 1 C4.34 2.65 3.68 4.3 3 6 C1.68 5.67 0.36 5.34 -1 5 C-0.67 3.35 -0.34 1.7 0 0 Z " fill="#2C4982" transform="translate(780,196)"/><path d="M0 0 C1.32 0.33 2.64 0.66 4 1 C4 2.32 4 3.64 4 5 C1.69 5 -0.62 5 -3 5 C-2.01 4.67 -1.02 4.34 0 4 C0 2.68 0 1.36 0 0 Z " fill="#345083" transform="translate(652,577)"/><path d="M0 0 C0.99 0.33 1.98 0.66 3 1 C1.6875 3.5 1.6875 3.5 0 6 C-0.99 6 -1.98 6 -3 6 C-2.42655063 3.13275314 -2.1385485 2.1385485 0 0 Z " fill="#233F79" transform="translate(871,500)"/><path d="M0 0 C0.99 0 1.98 0 3 0 C3.1875 2.875 3.1875 2.875 3 6 C2.01 6.66 1.02 7.32 0 8 C0 5.36 0 2.72 0 0 Z " fill="#1D3A79" transform="translate(501,400)"/><path d="M0 0 C1.98 0.495 1.98 0.495 4 1 C4 1.99 4 2.98 4 4 C3.01 4.66 2.02 5.32 1 6 C0.34 5.34 -0.32 4.68 -1 4 C-0.625 1.875 -0.625 1.875 0 0 Z " fill="#395285" transform="translate(869,266)"/><path d="M0 0 C-0.33 1.32 -0.66 2.64 -1 4 C-3.475 3.01 -3.475 3.01 -6 2 C-6 1.34 -6 0.68 -6 0 C-3.50907189 -1.24546405 -2.58919267 -0.7767578 0 0 Z " fill="#6FB458" transform="translate(849,334)"/><path d="M0 0 C1.32 0 2.64 0 4 0 C3.50168276 3.68754757 2.89932357 5.60490662 0 8 C0.50603992 5.83125748 0.99983813 4.00032373 2 2 C1.01 1.67 0.02 1.34 -1 1 C-0.67 0.67 -0.34 0.34 0 0 Z " fill="#2E4782" transform="translate(545,255)"/><path d="M0 0 C1.98 0.495 1.98 0.495 4 1 C4 3.64 4 6.28 4 9 C3.67 9 3.34 9 3 9 C3 6.69 3 4.38 3 2 C1.68 2.99 0.36 3.98 -1 5 C-0.67 3.35 -0.34 1.7 0 0 Z " fill="#3E588D" transform="translate(502,359)"/><path d="M0 0 C0.99 0 1.98 0 3 0 C2.38722388 2.96175123 1.74627478 4.38058783 0 7 C-0.38133299 5.0085944 -0.71325582 3.00720923 -1 1 C-0.67 0.67 -0.34 0.34 0 0 Z " fill="#213F7D" transform="translate(504,417)"/><path d="M0 0 C2.475 0.99 2.475 0.99 5 2 C4.67 2.99 4.34 3.98 4 5 C2.68 4.67 1.36 4.34 0 4 C0 2.68 0 1.36 0 0 Z " fill="#38588D" transform="translate(907,398)"/><path d="M0 0 C0.99 0 1.98 0 3 0 C3 1.98 3 3.96 3 6 C2.34 6 1.68 6 1 6 C0.34 4.35 -0.32 2.7 -1 1 C-0.67 0.67 -0.34 0.34 0 0 Z " fill="#324E87" transform="translate(548,232)"/><path d="M0 0 C2.0625 0.4375 2.0625 0.4375 4 1 C3.67 1.99 3.34 2.98 3 4 C2.01 4.33 1.02 4.66 0 5 C-0.5625 3.0625 -0.5625 3.0625 -1 1 C-0.67 0.67 -0.34 0.34 0 0 Z " fill="#3B578D" transform="translate(797,204)"/><path d="M0 0 C1.98 0 3.96 0 6 0 C4.515 1.98 4.515 1.98 3 4 C1.68 3.67 0.36 3.34 -1 3 C-0.67 2.01 -0.34 1.02 0 0 Z " fill="#364F86" transform="translate(761,190)"/><path d="M0 0 C3 1 3 1 5 3 C4.67 3.66 4.34 4.32 4 5 C2.68 4.67 1.36 4.34 0 4 C0 2.68 0 1.36 0 0 Z " fill="#2B4983" transform="translate(742,185)"/></svg>
