<svg xmlns="http://www.w3.org/2000/svg" version="1.1" xmlns:xlink="http://www.w3.org/1999/xlink" viewBox="0 0 16.306396225302493 3.412957016318117"><g transform="matrix(1,0,0,1,3.2297527845492895,1.1709785081590587)"><g clip-path="url(#SvgjsClipPath1001)"><g clip-path="url(#SvgjsClipPath1000e559dcc9-891f-46c0-8e11-2b112b39d01c)"><path d=" M -0.724502705706374 -0.5128855803832952 L -2.571659856773527 -0.5128855803832952 L -2.571659856773527 1.3342715706838577 L -0.724502705706374 1.3342715706838577 Z M -2.6465485527804637 -0.587774276390232 L -2.6465485527804637 1.4091602666907943 L -0.6496140096994374 1.4091602666907943 L -0.6496140096994374 -0.587774276390232 Z" fill="#1e90ff" transform="matrix(1,0,0,1,0,0)" fill-rule="evenodd"></path></g><g clip-path="url(#SvgjsClipPath1000e559dcc9-891f-46c0-8e11-2b112b39d01c)"><path d=" M -0.4748886960069365 -0.263271570683858 L -2.3220458470740897 -0.263271570683858 L -2.3220458470740897 1.5838855803832952 L -0.4748886960069365 1.5838855803832952 Z M -2.3969345430810263 -0.3381602666907947 L -2.3969345430810263 1.6587742763902318 L -0.3999999999999999 1.6587742763902318 L -0.3999999999999999 -0.3381602666907947 Z" fill="#1e90ff" transform="matrix(1,0,0,1,0,0)" fill-rule="evenodd"></path></g><path d=" M -1.5557148519022785 0.9972988872470181 C -1.6367030051011549 0.9972988872470181 -1.709370457628914 0.977051848947299 -1.7737172094855556 0.9365577723478609 C -1.838063961342197 0.8960636957484225 -1.8888202354360133 0.8411470713190474 -1.9259860317670046 0.7718078990597355 C -1.9631518280979958 0.7024687268004234 -1.9817347262634915 0.6239767838028821 -1.9817347262634915 0.5363320700671118 C -1.9817347262634915 0.4486873563313414 -1.9614876879637724 0.3699180566447629 -1.9209936113643342 0.30002417100737644 C -1.8804995347648958 0.23013028536998986 -1.8255829103355208 0.17493630425157755 -1.7562437380762088 0.13444222765213937 C -1.6869045658168969 0.09394815105270111 -1.6089673361974302 0.07370111275298201 -1.5224320492178087 0.07370111275298201 C -1.4358967622381873 0.07370111275298201 -1.3582368893077579 0.09394815105270111 -1.2894524304265202 0.13444222765213937 C -1.2206679715452826 0.17493630425157755 -1.1660287038049448 0.23013028536998986 -1.1255346272055067 0.30002417100737644 C -1.0850405506060683 0.3699180566447629 -1.0647935123063492 0.4486873563313414 -1.0647935123063492 0.5363320700671118 L -1.1296949775410654 0.5363320700671118 C -1.1296949775410654 0.6239767838028821 -1.148277875706561 0.7024687268004234 -1.1854436720375523 0.7718078990597355 C -1.2226094683685436 0.8411470713190474 -1.27336574246236 0.8960636957484225 -1.3377124943190015 0.9365577723478609 C -1.402059246175643 0.977051848947299 -1.474726698703402 0.9972988872470181 -1.5557148519022785 0.9972988872470181 M -1.5224320492178087 0.8475262751669042 C -1.46585128465421 0.8475262751669042 -1.415372367249431 0.833935797404079 -1.3709952970034711 0.8067548418784287 C -1.3266182267575115 0.7795738863527785 -1.2916712839388182 0.7424080900217872 -1.2661544685473913 0.695257452885455 C -1.2406376531559646 0.6481068157491229 -1.2278792454602512 0.5951316881430083 -1.2278792454602512 0.5363320700671118 C -1.2278792454602512 0.4764230252350662 -1.2406376531559646 0.4228931842508773 -1.2661544685473913 0.3757425471145452 C -1.2916712839388182 0.328591909978213 -1.3266182267575115 0.29142611364722176 -1.3709952970034711 0.2642451581215714 C -1.415372367249431 0.2370642025959211 -1.46585128465421 0.2234737248330959 -1.5224320492178087 0.2234737248330959 C -1.5779033870252581 0.2234737248330959 -1.6281049477410001 0.2370642025959211 -1.6730367313650345 0.2642451581215714 C -1.7179685149890687 0.29142611364722176 -1.7534701711858363 0.328591909978213 -1.7795416999553377 0.3757425471145452 C -1.805613228724839 0.4228931842508773 -1.8186489931095897 0.4764230252350662 -1.8186489931095897 0.5363320700671118 C -1.8186489931095897 0.5951316881430083 -1.805613228724839 0.6481068157491229 -1.7795416999553377 0.695257452885455 C -1.7534701711858363 0.7424080900217872 -1.7179685149890687 0.7795738863527785 -1.6730367313650345 0.8067548418784287 C -1.6281049477410001 0.833935797404079 -1.5779033870252581 0.8475262751669042 -1.5224320492178087 0.8475262751669042 M -1.1496646591517474 0.9923064668443475 C -1.174072047787025 0.9923064668443475 -1.194319086086744 0.9842631228622674 -1.2104057740509044 0.968176434898107 C -1.226492462015065 0.9520897469339468 -1.2345358059971452 0.9318427086342277 -1.2345358059971452 0.9074353199989498 L -1.2345358059971452 0.6528218794627559 L -1.2029171434468988 0.4764230252350662 L -1.0647935123063492 0.5363320700671118 L -1.0647935123063492 0.9074353199989498 C -1.0647935123063492 0.9318427086342277 -1.0728368562884294 0.9520897469339468 -1.08892354425259 0.968176434898107 C -1.1050102322167503 0.9842631228622674 -1.1252572705164694 0.9923064668443475 -1.1496646591517474 0.9923064668443475" fill="#3eb489" transform="matrix(1,0,0,1,0,0)" fill-rule="nonzero"></path></g><g><path d=" M 0.3375 0.005999999999999783 L 0.6645 0.005999999999999783 L 1.0035 1.0709999999999997 L 0.7065 1.0709999999999997 L 0.642 0.8624999999999997 L 0.3585 0.8624999999999997 L 0.2955 1.0709999999999997 L -0.003 1.0709999999999997 L 0.3375 0.005999999999999783 M 0.5955 0.6674999999999998 L 0.501 0.29249999999999976 L 0.402 0.6674999999999998 L 0.5955 0.6674999999999998 M 1.0964882812499999 1.0709999999999997 L 1.0964882812499999 0.005999999999999783 L 1.55548828125 0.005999999999999783 Q 1.63348828125 0.005999999999999783 1.6994882812499998 0.037499999999999645 Q 1.7654882812500001 0.06899999999999973 1.81348828125 0.12224999999999975 Q 1.86148828125 0.17549999999999966 1.8877382812499999 0.24149999999999971 Q 1.91398828125 0.30749999999999966 1.91398828125 0.37499999999999967 Q 1.91398828125 0.4694999999999997 1.86973828125 0.5534999999999998 Q 1.82548828125 0.6374999999999997 1.7467382812499999 0.6907499999999998 Q 1.66798828125 0.7439999999999998 1.56298828125 0.7439999999999998 L 1.38898828125 0.7439999999999998 L 1.38898828125 1.0709999999999997 L 1.0964882812499999 1.0709999999999997 M 1.38898828125 0.48899999999999977 L 1.54348828125 0.48899999999999977 Q 1.56148828125 0.48899999999999977 1.5779882812500001 0.4784999999999997 Q 1.5944882812499999 0.46799999999999975 1.6057382812499998 0.44249999999999967 Q 1.6169882812499998 0.4169999999999997 1.6169882812499998 0.37499999999999967 Q 1.6169882812499998 0.32999999999999974 1.60423828125 0.3052499999999997 Q 1.59148828125 0.28049999999999975 1.57273828125 0.2707499999999997 Q 1.55398828125 0.2609999999999997 1.5359882812499999 0.2609999999999997 L 1.38898828125 0.2609999999999997 L 1.38898828125 0.48899999999999977 M 2.203464111328125 0.005999999999999783 L 2.5304641113281248 0.005999999999999783 L 2.869464111328125 1.0709999999999997 L 2.572464111328125 1.0709999999999997 L 2.507964111328125 0.8624999999999997 L 2.2244641113281247 0.8624999999999997 L 2.161464111328125 1.0709999999999997 L 1.862964111328125 1.0709999999999997 L 2.203464111328125 0.005999999999999783 M 2.461464111328125 0.6674999999999998 L 2.366964111328125 0.29249999999999976 L 2.267964111328125 0.6674999999999998 L 2.461464111328125 0.6674999999999998 M 2.9624523925781245 1.0709999999999997 L 2.9624523925781245 0.005999999999999783 L 3.4514523925781244 0.005999999999999783 Q 3.5294523925781247 0.005999999999999783 3.5954523925781245 0.037499999999999645 Q 3.6614523925781244 0.06899999999999973 3.7094523925781244 0.12224999999999975 Q 3.7574523925781245 0.17549999999999966 3.7837023925781246 0.24149999999999971 Q 3.8099523925781247 0.30749999999999966 3.8099523925781247 0.37499999999999967 Q 3.8099523925781247 0.43649999999999967 3.791952392578125 0.4934999999999997 Q 3.7739523925781246 0.5504999999999998 3.7394523925781247 0.5977499999999998 Q 3.7049523925781247 0.6449999999999998 3.6569523925781247 0.6794999999999998 L 3.8819523925781247 1.0709999999999997 L 3.5609523925781246 1.0709999999999997 L 3.3734523925781246 0.7439999999999998 L 3.2549523925781245 0.7439999999999998 L 3.2549523925781245 1.0709999999999997 L 2.9624523925781245 1.0709999999999997 M 3.2549523925781245 0.48899999999999977 L 3.439452392578125 0.48899999999999977 Q 3.4574523925781246 0.48899999999999977 3.4739523925781244 0.4754999999999997 Q 3.4904523925781246 0.46199999999999974 3.5017023925781245 0.43649999999999967 Q 3.5129523925781245 0.4109999999999997 3.5129523925781245 0.37499999999999967 Q 3.5129523925781245 0.3374999999999997 3.5002023925781245 0.31274999999999975 Q 3.487452392578125 0.2879999999999997 3.4687023925781246 0.27449999999999974 Q 3.4499523925781244 0.2609999999999997 3.4319523925781246 0.2609999999999997 L 3.2549523925781245 0.2609999999999997 L 3.2549523925781245 0.48899999999999977 M 4.73843408203125 0.8159999999999997 L 4.73843408203125 1.0709999999999997 L 3.9794340820312497 1.0709999999999997 L 3.9794340820312497 0.005999999999999783 L 4.7249340820312495 0.005999999999999783 L 4.7249340820312495 0.2609999999999997 L 4.27193408203125 0.2609999999999997 L 4.27193408203125 0.4109999999999997 L 4.65893408203125 0.4109999999999997 L 4.65893408203125 0.6479999999999997 L 4.27193408203125 0.6479999999999997 L 4.27193408203125 0.8159999999999997 L 4.73843408203125 0.8159999999999997 M 5.171911376953125 0.5474999999999998 L 5.171911376953125 1.0709999999999997 L 4.879411376953125 1.0709999999999997 L 4.879411376953125 0.005999999999999783 L 5.107411376953125 0.005999999999999783 L 5.534911376953125 0.5474999999999998 L 5.534911376953125 0.005999999999999783 L 5.827411376953125 0.005999999999999783 L 5.827411376953125 1.0709999999999997 L 5.594911376953125 1.0709999999999997 L 5.171911376953125 0.5474999999999998 M 5.9564538574218755 0.5294999999999997 Q 5.9564538574218755 0.4319999999999997 5.993203857421875 0.3382499999999997 Q 6.029953857421875 0.24449999999999972 6.100453857421875 0.1679999999999997 Q 6.170953857421875 0.09149999999999969 6.272203857421875 0.045749999999999735 Q 6.373453857421875 -2.220446049250313e-16 6.500953857421875 -2.220446049250313e-16 Q 6.653953857421875 -2.220446049250313e-16 6.767953857421875 0.06374999999999975 Q 6.881953857421875 0.12749999999999972 6.937453857421875 0.2324999999999997 L 6.713953857421875 0.39149999999999974 Q 6.694453857421875 0.33899999999999975 6.657703857421875 0.31049999999999967 Q 6.620953857421875 0.2819999999999997 6.578203857421875 0.2707499999999997 Q 6.535453857421875 0.25949999999999973 6.4949538574218755 0.25949999999999973 Q 6.431953857421875 0.25949999999999973 6.386203857421875 0.28424999999999967 Q 6.340453857421875 0.3089999999999997 6.311203857421875 0.3494999999999997 Q 6.281953857421875 0.3899999999999997 6.267703857421875 0.43949999999999967 Q 6.253453857421875 0.48899999999999977 6.253453857421875 0.5384999999999998 Q 6.253453857421875 0.5939999999999996 6.269953857421875 0.6449999999999998 Q 6.286453857421876 0.6959999999999997 6.317953857421875 0.7357499999999997 Q 6.349453857421875 0.7754999999999997 6.395203857421875 0.7979999999999997 Q 6.440953857421875 0.8204999999999998 6.497953857421875 0.8204999999999998 Q 6.538453857421875 0.8204999999999998 6.580453857421875 0.8077499999999997 Q 6.622453857421875 0.7949999999999997 6.656953857421875 0.7664999999999997 Q 6.691453857421875 0.7379999999999998 6.709453857421876 0.6899999999999997 L 6.947953857421875 0.8324999999999997 Q 6.9164538574218755 0.9104999999999998 6.842953857421875 0.9659999999999997 Q 6.769453857421875 1.0214999999999996 6.676453857421875 1.0507499999999996 Q 6.583453857421875 1.0799999999999996 6.491953857421875 1.0799999999999996 Q 6.373453857421875 1.0799999999999996 6.275203857421875 1.0327499999999998 Q 6.176953857421875 0.9854999999999997 6.105703857421875 0.9067499999999997 Q 6.034453857421875 0.8279999999999997 5.995453857421875 0.7297499999999997 Q 5.9564538574218755 0.6314999999999997 5.9564538574218755 0.5294999999999997 M 7.285442871093751 0.005999999999999783 L 7.612442871093751 0.005999999999999783 L 7.95144287109375 1.0709999999999997 L 7.65444287109375 1.0709999999999997 L 7.589942871093751 0.8624999999999997 L 7.306442871093751 0.8624999999999997 L 7.24344287109375 1.0709999999999997 L 6.94494287109375 1.0709999999999997 L 7.285442871093751 0.005999999999999783 M 7.543442871093751 0.6674999999999998 L 7.448942871093751 0.29249999999999976 L 7.34994287109375 0.6674999999999998 L 7.543442871093751 0.6674999999999998 M 8.33693115234375 0.5474999999999998 L 8.33693115234375 1.0709999999999997 L 8.044431152343751 1.0709999999999997 L 8.044431152343751 0.005999999999999783 L 8.272431152343751 0.005999999999999783 L 8.699931152343751 0.5474999999999998 L 8.699931152343751 0.005999999999999783 L 8.99243115234375 0.005999999999999783 L 8.99243115234375 1.0709999999999997 L 8.75993115234375 1.0709999999999997 L 8.33693115234375 0.5474999999999998 M 9.4259736328125 0.005999999999999783 L 9.7529736328125 0.005999999999999783 L 10.0919736328125 1.0709999999999997 L 9.7949736328125 1.0709999999999997 L 9.7304736328125 0.8624999999999997 L 9.4469736328125 0.8624999999999997 L 9.3839736328125 1.0709999999999997 L 9.0854736328125 1.0709999999999997 L 9.4259736328125 0.005999999999999783 M 9.6839736328125 0.6674999999999998 L 9.5894736328125 0.29249999999999976 L 9.490473632812499 0.6674999999999998 L 9.6839736328125 0.6674999999999998 M 10.9904619140625 1.0709999999999997 L 10.9904619140625 0.5099999999999997 L 10.8119619140625 0.9044999999999997 L 10.6559619140625 0.9044999999999997 L 10.4774619140625 0.5099999999999997 L 10.4774619140625 1.0709999999999997 L 10.1849619140625 1.0709999999999997 L 10.1849619140625 0.005999999999999783 L 10.5044619140625 0.005999999999999783 L 10.7339619140625 0.5069999999999997 L 10.9649619140625 0.005999999999999783 L 11.2829619140625 0.005999999999999783 L 11.2829619140625 1.0709999999999997 L 10.9904619140625 1.0709999999999997 M 11.9354677734375 1.0799999999999996 Q 11.8079677734375 1.0799999999999996 11.7164677734375 1.0379999999999998 Q 11.6249677734375 0.9959999999999998 11.5672177734375 0.9224999999999998 Q 11.5094677734375 0.8489999999999998 11.4824677734375 0.7537499999999997 Q 11.4554677734375 0.6584999999999996 11.4554677734375 0.5534999999999998 L 11.4554677734375 0.005999999999999783 L 11.7479677734375 0.005999999999999783 L 11.7479677734375 0.5534999999999998 Q 11.7479677734375 0.6059999999999997 11.7584677734375 0.6539999999999997 Q 11.7689677734375 0.7019999999999997 11.7914677734375 0.7394999999999997 Q 11.8139677734375 0.7769999999999997 11.8492177734375 0.7987499999999997 Q 11.8844677734375 0.8204999999999998 11.9354677734375 0.8204999999999998 Q 11.9879677734375 0.8204999999999998 12.0239677734375 0.7987499999999997 Q 12.0599677734375 0.7769999999999997 12.0817177734375 0.7387499999999998 Q 12.103467773437501 0.7004999999999997 12.1139677734375 0.6524999999999997 Q 12.1244677734375 0.6044999999999997 12.1244677734375 0.5534999999999998 L 12.1244677734375 0.005999999999999783 L 12.4169677734375 0.005999999999999783 L 12.4169677734375 0.5534999999999998 Q 12.4169677734375 0.6644999999999996 12.387717773437501 0.7604999999999997 Q 12.3584677734375 0.8564999999999997 12.2999677734375 0.9284999999999997 Q 12.2414677734375 1.0004999999999997 12.150717773437501 1.0402499999999997 Q 12.0599677734375 1.0799999999999996 11.9354677734375 1.0799999999999996" fill="#1e90ff" fill-rule="nonzero"></path></g><g></g></g><defs><clipPath id="SvgjsClipPath1001"><path d=" M -2.6465485527804637 -0.587774276390232 h 2.246548552780464 v 2.246548552780464 h -2.246548552780464 Z"></path></clipPath><clipPath id="SvgjsClipPath1000e559dcc9-891f-46c0-8e11-2b112b39d01c"><path d=" M -2.6465485527804637 -0.587774276390232 L -0.3999999999999999 -0.587774276390232 L -0.3999999999999999 1.6587742763902318 L -2.6465485527804637 1.6587742763902318 Z"></path></clipPath></defs></svg>